<svg width="407" height="670" viewBox="0 0 407 670" fill="none" xmlns="http://www.w3.org/2000/svg">
<path d="M78.8974 370.674C90.91 364.967 102.903 359.306 114.9 353.639C117.926 352.201 120.952 350.763 123.952 349.34C151.353 336.379 178.668 323.348 205.969 310.217C209.638 308.464 213.293 306.682 216.948 304.899C231.317 297.984 245.686 291.014 260.056 283.96C263.73 282.172 267.4 280.355 271.1 278.532C287.121 270.639 303.168 262.67 319.235 254.592C303.213 223.187 280.216 203.161 254.219 186.236C229.48 170.134 202.424 164.772 172.862 168.506C99.2879 177.778 47.308 217.366 13.4869 281.643C-6.35442 319.383 -4.02279 357.728 
18.6295 399.148C37.0129 390.436 55.3264 381.798 73.595 373.151L78.8974 370.674Z" fill="none"/>
<path d="M363.242 375.573C356.656 375.573 350.271 376.421 344.04 377.899C337.864 379.367 331.797 381.424 325.811 383.89C320.848 385.943 316.11 388.329 311.517 390.98C301.556 396.652 292.339 403.462 283.163 410.347C280.452 412.379 277.74 414.431 275.019 416.438C274.41 416.878 273.826 417.322 273.232 417.747C257.849 428.875 241.243 436.989 221.547 434.617C216.629 434.033 211.686 433.254 206.783 432.191C200.762 430.942 194.8 429.315 189.059 427.268C180.221 424.097 171.574 422.465 163.041 422.22C160.625 422.14 158.253 422.185 155.872 422.345C155.447 422.36 155.028 422.385 154.583 422.445C150.624 422.724 146.67 423.348 142.751 424.237C140.049 424.836 137.358 425.6 134.662 426.484C130.613 427.807 126.589 429.43 122.6 431.342C121.511 431.846 120.428 432.365 119.359 432.93C105.934 439.86 95.9532 449.041 89.867 460.839C85.4534 469.357 83.0618 479.198 82.9071 490.551C82.8222 495.953 83.3664 501.136 84.4299 506.139C86.0525 513.838 88.8834 521.072 92.4583 527.917C94.2906 531.432 96.3127 534.847 98.4796 538.162C99.0887 539.051 99.6878 539.955 100.287 540.839C101.32 542.316 102.364 543.784 103.442 545.217C109.908 553.895 117.197 561.549 125.371 567.939C127.078 569.273 128.821 570.556 130.603 571.779C135.96 575.449 141.672 578.604 147.738 581.18C147.738 581.175 147.738 581.175 147.738 581.175C148.382 581.455 149.026 581.715 149.686 581.984C149.686 581.984 149.686 581.984 149.691 581.984C156.735 584.815 164.269 586.882 172.298 588.065C172.293 588.065 172.293 588.065 172.293 588.065C172.348 588.09 172.433 588.105 172.493 588.105C184.32 589.878 196.348 590.237 208.296 591.216C209.799 591.241 211.286 591.261 212.789 591.241C212.789 591.241 212.789 591.246 212.799 591.246C225.486 591.226 237.998 590.297 250.135 587.771C250.135 587.771 250.135 587.766 250.13 587.766C250.135 587.766 250.135 587.766 250.135 587.766C258.508 586.013 266.721 583.512 274.69 579.992C274.7 579.992 274.7 579.992 274.7 579.997C276.812 579.048 278.889 578.07 280.966 576.981C299.214 567.54 317.323 557.44 334.109 545.622C336.136 544.194 338.123 542.751 340.07 541.258C340.08 541.258 340.08 541.258 340.08 541.253C347.455 535.691 354.295 529.735 360.566 523.374C360.576 523.369 360.581 523.369 360.596 523.359C365.394 518.521 369.867 513.453 373.986 508.151C373.981 508.161 373.971 508.161 373.966 508.166C373.971 508.161 373.981 508.151 373.981 508.146C374.765 507.182 375.504 506.184 376.253 505.195C376.253 505.195 376.253 505.195 376.253 505.19C376.253 505.195 376.253 505.195 376.253 505.205C386.618 491.3 394.706 475.813 400.303 458.692C402.111 453.22 403.658 447.573 404.942 441.747C407.673 429.37 407.772 417.018 403.823 404.865C397.912 386.766 382.15 375.597 363.242 375.573Z" fill="#F4F0EF"/>
<path d="M129.539 205.928C116.403 211.485 104.086 218.559 92.8125 226.942C104.491 223.258 115.265 217.851 124.766 209.847C126.344 208.519 127.932 207.206 129.539 205.928Z" fill="#ECE6E5"/>
<path d="M151.612 209.692C156.331 205.763 161.513 202.383 166.661 199.018C169.586 197.105 172.537 195.223 175.503 193.406C171.149 193.985 166.84 194.719 162.587 195.603C155.692 200.161 148.811 204.744 141.891 209.283C138.232 211.674 134.767 214.485 130.842 216.318C112.389 224.905 93.801 233.198 75.3327 241.756C71.4383 245.515 67.7137 249.445 64.1738 253.529C82.8918 244.277 101.635 235.096 120.707 226.648C131.621 221.815 142.366 217.391 151.612 209.692Z" fill="#ECE6E5"/>
<path d="M54.9098 427.332C68.0708 403.771 86.624 387.565 113.106 379.272C134.445 372.596 156.258 371.823 177.947 369.431C199.701 367.029 218.683 359.121 234.91 344.981C249.459 332.31 262.709 318.15 277.243 305.463C297.289 287.984 318.973 273.35 345.06 267.488C343.807 265.726 342.524 263.983 341.216 262.266C316.147 269.311 294.389 282.492 274.922 299.447C263.678 309.238 253.118 319.828 242.539 330.342C221.105 351.657 196.041 363.864 165.225 364.273C143.652 364.563 122.637 369.081 102.311 376.765C85.915 382.976 71.361 391.679 61.6401 406.602C53.1374 419.663 45.4035 433.234 37.5898 446.734C38.4736 448.597 39.3972 450.444 40.3409 452.266C41.5192 450.953 42.6575 449.62 43.5263 448.122C47.4805 441.282 51.0554 434.232 54.9098 427.332Z" fill="#ECE6E5"/>
<path d="M51.4332 396.117C70.1411 375.916 93.9617 365.776 120.354 361.018C136.296 358.137 152.412 356.21 168.479 354.088C182.259 352.276 194.387 346.609 206.259 339.644C223.814 329.349 239.511 317.046 253.606 302.293C275.854 279.011 301.207 260.693 331.204 250.268C329.711 248.615 328.178 246.988 326.62 245.405C325.622 245.834 324.628 246.279 323.65 246.723C300.029 257.523 277.297 269.815 258.923 288.797C251.898 296.052 244.829 303.291 237.26 309.947C219.016 325.999 199.354 340.223 175.504 346.349C160.715 350.154 145.332 352.935 130.109 353.519C105.795 354.452 84.9348 364.353 64.9287 376.116C44.0339 388.388 33.544 407.116 30.6133 429.669C31.8115 433.109 33.1247 436.499 34.5226 439.834C35.5362 437.258 36.1003 434.671 36.5747 432.06C38.9363 419.004 41.9669 406.352 51.4332 396.117Z" fill="#ECE6E5"/>
<path d="M83.5415 426.439C92.7782 414.491 104.861 408.155 119.075 405.878C129.42 404.226 140.055 403.587 150.545 403.771C184.216 404.375 213.459 393.546 238.263 370.914C247.025 362.925 255.398 354.498 263.691 346.025C290.248 318.884 320.509 297.964 357.061 287.05C355.988 285.023 354.879 283.021 353.736 281.054C324.593 292.637 296.429 305.863 273.617 328.37C259.862 341.941 246.181 355.646 231.677 368.392C207.897 389.297 180.142 398.514 148.108 397.261C133.959 396.702 119.45 400.206 105.43 403.327C94.9999 405.649 86.7918 412.444 79.9367 421.021C68.9576 434.732 57.2795 447.873 45.9758 461.328C45.851 461.478 45.7312 461.638 45.6113 461.787C46.6698 463.58 47.7732 465.337 48.8916 467.085C49.3759 466.606 49.8552 466.126 50.2996 465.607C61.5233 452.666 73.0766 439.969 83.5415 426.439Z" fill="#ECE6E5"/>
<path d="M87.6942 346.724C98.0442 345.071 108.679 344.432 119.169 344.617C152.84 345.216 182.083 334.392 206.897 311.754C215.649 303.766 224.017 295.343 232.315 286.86C255.582 263.09 281.699 244.072 312.389 232.384C310.652 230.951 308.894 229.558 307.112 228.195C283.481 238.415 261.049 250.668 242.241 269.216C228.486 282.786 214.805 296.491 200.301 309.238C176.526 330.138 148.766 339.354 116.732 338.101C102.583 337.547 88.0736 341.047 74.0539 344.172C63.624 346.494 55.4158 353.279 48.5557 361.862C39.9731 372.581 30.9662 382.956 22.0391 393.396C22.3985 396.112 22.798 398.798 23.2623 401.475C33.0931 390.236 43.0387 379.072 52.1655 367.274C61.4022 355.336 73.4747 348.995 87.6942 346.724Z" fill="#ECE6E5"/>
<path d="M287.596 525.74C304.911 515.84 320.383 503.143 333.404 488.284C325.925 490.641 319.1 494.955 313.219 500.677C304.651 509.004 296.098 517.342 287.596 525.74Z" fill="#ECE6E5"/>
<path d="M131.907 315.349C150.879 303.002 171.345 294.09 192.424 286.686C208.91 280.894 223.065 271.937 236.87 261.627C256.002 247.333 275.619 233.682 295.061 219.797C293.128 218.559 291.171 217.351 289.184 216.198C270.381 229.538 251.633 242.994 233.28 256.949C219.909 267.119 205.994 275.731 189.958 281.343C168.853 288.713 148.368 297.485 129.37 309.817C112.375 320.836 93.4821 328.016 73.3661 331.87C53.5448 335.675 35.6407 342.869 21.1516 355.896C20.912 358.981 20.7372 362.087 20.6523 365.207C35.1464 349.974 53.7195 341.981 74.7042 337.942C95.2146 333.992 114.542 326.663 131.907 315.349Z" fill="#ECE6E5"/>
<path d="M282.503 386.122C265.437 413.243 240.453 427.497 209.648 433.219C196.712 435.62 184.035 439.829 171.029 441.362C130.552 446.135 106.966 474.719 82.6514 502.504C82.4717 502.713 82.7763 503.342 83.3055 506.128C86.7605 503.867 89.4965 502.623 91.5336 500.661C98.4935 493.961 105.938 487.58 111.874 480.026C126.338 461.628 145.95 453.035 167.973 448.432C184.29 445.027 200.756 442.221 216.902 438.132C242.99 431.526 266.571 420.492 282.073 396.881C284.719 392.842 287.83 389.098 290.416 385.023C309.968 354.183 336.51 332.939 371.284 322.888C370.81 321.171 370.296 319.463 369.781 317.766C353.565 322.404 338.332 329.099 324.492 339.275C307.162 352.006 293.791 368.183 282.503 386.122Z" fill="#ECE6E5"/>
<path d="M285.934 405.449C261.624 430.897 232.526 447.878 197.806 454.763C196.948 454.933 196.134 455.297 195.295 455.557C158.953 466.725 126.709 484.63 101.021 513.198C99.8131 514.546 98.8594 516.114 97.9258 517.707C99.184 518.566 100.447 519.419 101.725 520.253C105.864 516.499 110.073 512.799 113.898 508.745C130.818 490.751 151.773 478.908 174.201 469.606C185.919 464.753 198.106 460.849 210.338 457.474C235.707 450.474 259.128 440.324 277.611 420.717C282.404 415.629 288.281 411.58 293.328 406.702C301.062 399.223 309.919 394.051 320.204 390.765C341.938 383.835 360.521 372.222 377.252 357.953C377.077 355.446 376.848 352.955 376.573 350.479C360.396 364.933 342.547 376.87 321.468 383.825C307.792 388.339 295.885 395.029 285.934 405.449Z" fill="#ECE6E5"/>
<path d="M357.077 414.816C344.575 428.955 328.982 436.799 310.24 438.761C290.893 440.783 275.5 449.955 263.492 465.203C252.857 478.728 239.622 488.229 222.297 491.515C198.526 496.008 179.548 508.635 163.172 526.135C158.174 531.477 152.902 536.57 147.555 541.582C149.876 542.286 152.228 542.95 154.595 543.555C159.428 538.916 164.191 534.213 168.789 529.355C183.677 513.628 200.758 501.985 222.312 497.906C241.848 494.206 256.902 483.646 269.024 468.308C279.579 454.973 293.164 446.68 310.185 444.937C331.319 442.77 348.674 433.743 362.529 417.721C365.974 413.742 369.828 410.112 373.248 406.108C373.643 405.654 374.027 405.195 374.417 404.745C375.121 401.145 375.715 397.506 376.194 393.836C369.439 400.426 363.343 407.741 357.077 414.816Z" fill="#ECE6E5"/>
<path d="M128.117 441.647C135.381 431.801 145.347 427.243 157.07 425.29C169.602 423.198 182.159 421.086 194.511 418.181C228.287 410.257 258.189 395.883 278.674 366.221C282.409 360.819 287.566 356.365 291.036 350.838C305.021 328.58 325.916 315.589 349.507 305.998C351.943 305.014 354.42 304.056 356.701 302.782C358.064 302.018 359.093 300.66 360.271 299.572C359.802 298.638 359.338 297.7 358.868 296.756C355.693 297.615 352.338 298.074 349.382 299.417C340.605 303.411 331.997 307.775 323.305 311.949C312.83 316.982 304.237 324.112 297.133 333.433C287.292 346.344 276.737 358.707 266.597 371.393C257.949 382.213 247.24 390.276 235.122 396.886C211.556 409.753 185.704 414.596 159.701 418.67C144.278 421.091 131.447 426.823 121.726 439.665C112.37 452.027 100.607 461.892 86.2773 468.398C79.4921 471.484 72.7968 474.794 66.3261 478.473C64.9082 479.277 64.5287 481.938 62.7812 485.858C62.8312 485.918 62.8861 485.988 62.941 486.053C89.1332 474.544 112.145 463.25 128.117 441.647Z" fill="#ECE6E5"/>
<path d="M104.714 265.222C106.302 263.769 108.554 263.075 110.331 261.797C117.81 256.455 125.834 251.681 132.569 245.5C157.343 222.758 184.699 204.904 215.03 192.527C210.836 192.162 206.607 191.938 202.338 191.868C177.18 203.526 153.993 218.889 132.279 237.377C106.976 258.931 80.1847 278.353 47.6018 289.027C44.5712 290.021 41.5805 291.085 38.6048 292.193C37.2718 294.919 36.0086 297.685 34.8203 300.486C38.0257 299.148 41.261 297.87 44.5263 296.646C65.9853 288.588 87.4193 281.059 104.714 265.222Z" fill="#ECE6E5"/>
<path d="M69.0661 322.663C87.7242 320.946 103.636 313.037 118.31 302.253C126.428 296.282 133.952 289.471 141.531 282.786C155.931 270.089 171.748 260.708 191.015 256.869C224.716 250.138 252.196 231.071 278.758 210.556C277.09 209.722 275.408 208.903 273.72 208.124C269.062 211.165 264.389 214.19 259.9 217.466C240.943 231.286 220.952 244.382 198.075 248.94C170.959 254.342 148.901 266.764 129.439 285.422C125.33 289.367 120.776 292.882 116.188 296.282C101.894 306.881 86.6607 315.239 68.3322 316.413C64.8922 316.632 61.4072 317.671 58.1219 318.834C46.4838 322.938 35.285 327.896 24.4057 333.493C23.7366 336.663 23.1575 339.869 22.6582 343.099C31.8399 338.101 41.0416 333.158 50.3232 328.365C56.0549 325.41 62.6754 323.258 69.0661 322.663Z" fill="#ECE6E5"/>
<path d="M306.028 415.425C291.429 419.049 277.938 426.039 267.244 436.894C248.536 455.881 226.113 468.149 200.665 475.084C167.408 484.14 145.56 508.465 122.938 532.111C124.011 532.615 125.084 533.115 126.158 533.594C127.456 533.145 128.624 532.515 129.613 531.667C136.253 525.93 142.779 520.009 148.945 513.758C166.34 496.088 187.15 485.024 210.945 478.054C230.812 472.248 249.44 462.781 264.178 447.633C278.103 433.329 294.764 424.097 313.777 419.094C328.121 415.32 340.987 408.819 351.956 399.148C360.654 391.479 369.162 383.601 377.624 375.662C377.694 372.871 377.719 370.06 377.669 367.244C375.632 369.311 373.645 371.408 371.658 373.5C353.215 392.847 332.794 408.784 306.028 415.425Z" fill="#ECE6E5"/>
<path d="M263.042 487.93C260.531 490.98 257.68 493.746 255.109 496.747C243.715 510.073 230.16 519.973 212.999 524.762C199.689 528.476 188.135 535.561 177.815 544.803C176.802 545.711 175.773 546.615 174.76 547.519C177.556 547.908 180.382 548.218 183.218 548.467C195.415 539.096 208.651 531.402 224.078 526.814C232.941 524.182 240.999 517.752 248.448 511.83C255.253 506.403 261.16 499.668 266.742 492.918C277.611 479.792 291.137 471.454 307.942 469.057C328.737 466.096 346.107 457.099 361.749 444.378C363.572 440.378 365.249 436.299 366.772 432.15C349.747 448.517 330.465 459.646 306.719 463.116C289.169 465.677 274.441 474.055 263.042 487.93Z" fill="#ECE6E5"/>
<path d="M262.342 517.292C250.434 531.706 234.802 541.328 217.467 548.218C223.992 547.549 230.413 546.535 236.709 545.187C251.682 536.195 264.848 524.637 277.121 511.406C285.039 502.863 294.605 494.984 304.91 489.712C318.196 482.912 332.051 476.981 346.146 471.918C347.988 469.252 349.766 466.526 351.463 463.755C351.398 463.775 351.328 463.795 351.263 463.82C317.198 473.885 285.858 488.818 262.342 517.292Z" fill="#ECE6E5"/>
<mask id="mask0_2006_1977" style="mask-type:luminance" maskUnits="userSpaceOnUse" x="236" y="126" width="21" height="545">
<path d="M236.229 126.942H256.679V670.007H236.229V126.942Z" fill="white"/>
</mask>
<g mask="url(#mask0_2006_1977)">
<path d="M251.682 129.114C244.872 163.154 240.857 197.675 238.825 232.315C236.818 266.68 236.898 301.13 237.647 335.53C237.842 344.153 238.116 352.76 238.411 361.368C238.701 369.996 238.98 378.618 239.33 387.246C240.009 404.551 240.668 421.871 241.307 439.186C241.936 456.61 242.455 474.04 242.73 491.47C243.009 509.154 242.565 526.824 241.871 544.488C241.077 564.589 239.939 584.675 239.085 604.766C238.226 624.862 237.602 644.993 238.012 665.099C238.056 667.221 239.744 668.988 241.901 668.988C244.018 668.988 245.765 667.221 245.775 665.099C245.89 647.444 246.359 629.805 247.039 612.17C247.723 594.546 248.566 576.926 249.23 559.297C249.899 541.652 250.334 523.998 250.314 506.338C250.279 488.819 249.66 471.289 248.956 453.779C248.257 436.434 247.408 419.1 246.529 401.76C245.656 384.505 244.782 367.249 244.083 349.999C243.394 332.799 242.79 315.589 242.535 298.374C242.29 281.169 242.375 263.969 242.885 246.774C243.663 220.651 245.601 194.564 249.046 168.662V168.672C250.788 155.765 252.935 142.929 255.481 130.167C255.696 129.109 255.197 128.04 254.113 127.736C253.949 127.691 253.779 127.676 253.609 127.676C252.75 127.676 251.862 128.235 251.682 129.114Z" fill="#333333"/>
</g>
<path d="M144.048 169.79C143.324 170.219 143.034 171.202 143.479 171.936C147.383 178.257 151.312 184.558 155.351 190.799C159.351 197 163.49 203.121 167.604 209.257C175.802 221.495 183.965 233.777 191.429 246.479C197.695 257.143 203.437 268.112 208.265 279.501C210.766 285.482 212.963 291.574 215.11 297.69C217.497 304.435 219.828 311.195 222.085 317.98C224.317 324.616 226.489 331.271 228.635 337.932C229.709 341.262 230.752 344.597 231.856 347.917C233.004 351.397 234.322 354.822 235.535 358.277C235.765 358.941 236.13 359.5 236.754 359.865C237.368 360.219 238.107 360.314 238.796 360.129C239.455 359.945 240.034 359.505 240.373 358.916C240.753 358.267 240.798 357.578 240.638 356.869C239.789 352.79 238.976 348.716 237.887 344.697C236.799 340.688 235.595 336.693 234.367 332.724C231.901 324.756 229.175 316.877 226.294 309.058C223.358 301.09 220.288 293.176 216.952 285.367C214.012 278.457 210.746 271.682 207.226 265.042C193.406 238.89 176.091 214.839 159.44 190.46C154.912 183.824 150.409 177.184 146.18 170.349C145.885 169.864 145.361 169.58 144.817 169.58C144.552 169.58 144.292 169.645 144.048 169.79Z" fill="#333333"/>
<path d="M377.127 341.352C368.45 357.618 357.331 372.387 346.666 387.375C341.314 394.879 336.096 402.493 331.308 410.387C326.71 417.961 322.816 425.909 319.386 434.088C312.421 450.674 307.588 468.058 303.044 485.438C300.772 494.096 298.556 502.763 296.444 511.451C294.282 520.338 292.165 529.23 289.933 538.087C285.075 557.424 279.603 576.691 271.849 595.095L272.094 594.501C270.107 599.184 267.965 603.792 265.653 608.321C264.49 610.597 263.302 612.849 262.048 615.076C260.675 617.482 259.173 619.809 257.62 622.106C254.724 626.385 251.628 630.514 248.708 634.772C247.255 636.899 245.877 639.071 244.574 641.293C243.161 643.72 241.813 646.216 240.849 648.852C240.455 649.936 241.094 651.224 242.032 651.773C242.636 652.122 243.36 652.217 244.024 652.043C244.738 651.843 245.143 651.408 245.567 650.849C246.91 649.077 248.084 647.195 249.332 645.357C250.68 643.37 252.043 641.408 253.396 639.426C255.987 635.631 258.558 631.817 261.005 627.922C263.461 624.018 265.753 620.024 267.855 615.92C269.927 611.871 271.834 607.737 273.642 603.558C280.911 586.742 286.313 569.207 290.907 551.493C295.49 533.823 299.34 515.979 303.683 498.25C307.947 480.865 312.326 463.465 318.237 446.55C319.79 442.111 321.473 437.732 323.29 433.399C324.952 429.459 326.74 425.59 328.667 421.78C330.599 417.961 332.716 414.236 334.948 410.577C339.626 402.853 344.784 395.423 349.996 388.049C355.204 380.695 360.506 373.41 365.574 365.956C370.656 358.492 375.454 350.828 379.718 342.859C380.098 342.14 379.908 341.237 379.179 340.807C378.949 340.673 378.685 340.618 378.425 340.618C377.906 340.618 377.387 340.867 377.127 341.352Z" fill="#333333"/>
<path d="M315.562 417.032C315.512 417.107 315.452 417.182 315.392 417.257C315.452 417.182 315.502 417.107 315.562 417.032ZM377.887 339.699C367.731 351.512 357.087 362.881 346.642 374.424C336.057 386.137 325.582 397.965 315.716 410.287C305.941 422.499 296.759 435.226 288.81 448.717C280.907 462.127 274.351 476.342 269.668 491.205C264.505 507.576 259.583 524.008 255.264 540.614C250.865 557.539 247.205 574.674 245.019 592.039C244.22 598.385 243.701 604.751 243.381 611.137C243.221 614.547 243.111 617.957 243.027 621.372C242.947 624.967 242.852 628.562 242.807 632.156C242.792 633.2 243.686 634.069 244.724 634.069C245.817 634.069 246.561 633.195 246.641 632.156C247.081 626.1 247.27 620.034 247.68 613.978C248.064 608.286 248.648 602.629 249.392 596.977C251.729 579.862 255.284 562.936 259.373 546.156C263.472 529.38 268.225 512.769 273.203 496.238C274.351 492.443 275.5 488.649 276.798 484.894C278.061 481.235 279.469 477.62 280.972 474.04C280.892 474.225 280.817 474.419 280.742 474.594C289.559 453.764 301.941 434.717 315.711 416.838C315.701 416.848 315.701 416.853 315.696 416.863C325.268 404.5 335.463 392.663 345.848 380.984C351.065 375.098 356.348 369.276 361.55 363.385C366.698 357.573 371.82 351.732 376.913 345.87C378.016 344.597 379.12 343.319 380.223 342.041C380.812 341.357 380.892 340.378 380.223 339.699C379.914 339.385 379.454 339.215 379.01 339.215C378.581 339.215 378.166 339.365 377.887 339.699Z" fill="#333333"/>
<path d="M299.992 457.689C300.007 457.669 300.022 457.639 300.027 457.609C300.022 457.639 300.007 457.659 299.992 457.689ZM313.533 430.743C310.797 434.632 308.26 438.651 305.934 442.795C303.637 446.869 301.57 451.063 299.653 455.332C295.853 463.805 292.683 472.527 289.947 481.399C287.191 490.336 284.799 499.393 282.543 508.48C280.261 517.602 278.069 526.749 275.698 535.851C272.262 549.047 268.408 562.173 263.141 574.774C260.574 580.821 257.763 586.742 254.593 592.499C251.233 598.62 247.468 604.496 243.464 610.213C243.189 610.672 243.055 611.177 243.055 611.716C243.055 612.5 243.374 613.274 243.928 613.828C244.483 614.387 245.247 614.702 246.04 614.702C246.744 614.702 247.683 614.407 248.142 613.828C251.278 609.879 254.129 605.73 256.715 601.391C259.151 597.297 261.343 593.038 263.33 588.704C267.315 580.002 270.475 570.965 273.181 561.788C274.504 557.275 275.663 552.716 276.786 548.158C277.919 543.584 278.963 538.996 279.961 534.388C280.965 529.784 281.889 525.161 282.832 520.543C283.771 515.934 284.739 511.331 285.728 506.723C289.288 490.072 293.392 473.431 299.992 457.689C299.982 457.714 299.967 457.744 299.962 457.763C303.887 448.487 308.66 439.525 314.437 431.267C314.596 431.037 314.481 430.693 314.252 430.558C314.167 430.508 314.082 430.483 313.997 430.483C313.812 430.483 313.643 430.588 313.533 430.743Z" fill="#333333"/>
<path d="M335.272 163.459C333.784 170.893 331.462 178.118 328.546 185.108C328.551 185.083 328.561 185.058 328.576 185.033C322.77 198.783 314.412 211.23 305.335 223.013L305.34 223.008C299.948 229.968 294.356 236.763 288.859 243.628C283.207 250.668 277.71 257.817 272.667 265.297C267.27 273.295 262.352 281.628 258.587 290.525C254.049 301.28 251.183 312.618 248.397 323.927C247.209 328.72 246.021 333.508 244.713 338.281C244.048 340.718 243.364 343.144 242.651 345.566C241.937 347.997 241.153 350.389 240.359 352.79C240.049 353.719 240.544 354.777 241.357 355.262C242.346 355.831 243.809 355.536 244.353 354.473C249.625 344.108 252.431 332.739 255.142 321.485C257.854 310.252 260.46 298.958 264.863 288.239C264.908 288.124 264.958 288.004 265.008 287.884C268.528 279.621 272.817 271.722 277.735 264.193C282.573 256.774 287.89 249.664 293.297 242.664C304.117 228.665 315.315 214.82 323.843 199.242C326.769 193.905 329.355 188.363 331.507 182.661C333.804 176.57 335.546 170.269 336.819 163.888C336.909 163.459 336.71 163.02 336.255 162.895C336.19 162.875 336.125 162.865 336.056 162.865C335.706 162.865 335.347 163.094 335.272 163.459Z" fill="#333333"/>
<path d="M336.058 164.173C328.12 167.403 320.496 171.372 313.341 176.11C306.556 180.594 300.24 185.796 294.453 191.518C283.07 202.797 273.973 216.202 266.828 230.517C259.509 245.146 254.242 260.768 250.392 276.65C248.46 284.639 246.917 292.727 245.694 300.855C245.075 304.959 244.546 309.083 244.096 313.207C243.452 318.999 242.993 324.806 242.488 330.602C242.164 334.437 241.79 338.266 241.42 342.106C241.375 342.565 241.415 342.979 241.69 343.379C241.934 343.738 242.319 343.993 242.738 344.078C243.637 344.247 244.556 343.648 244.715 342.75C245.754 337.028 246.223 331.211 246.722 325.415C247.182 320.137 247.681 314.87 248.37 309.612C249.428 301.479 250.697 293.371 252.304 285.323C254.471 274.433 257.182 263.664 260.702 253.134C265.38 239.179 271.591 225.719 279.64 213.372C285.751 204.1 292.921 195.557 301.164 188.108C301.129 188.143 301.079 188.183 301.039 188.218C308.773 181.283 317.35 175.377 326.587 170.608C329.887 168.921 333.267 167.378 336.712 165.985C337.192 165.785 337.476 165.261 337.286 164.757C337.157 164.377 336.772 164.113 336.378 164.113C336.273 164.113 336.163 164.128 336.058 164.173Z" fill="#333333"/>
<path d="M318.068 186.989C311.962 192.876 306.15 199.052 300.673 205.538C295.281 211.928 290.208 218.614 285.47 225.504C280.742 232.399 276.293 239.504 272.254 246.828C270.242 250.483 268.29 254.162 266.388 257.882C264.475 261.592 262.758 265.406 261.08 269.231C257.71 276.895 254.625 284.678 251.859 292.577C249.033 300.655 246.751 308.918 244.754 317.226C243.725 321.51 242.822 325.814 241.978 330.138C241.124 334.466 240.375 338.82 239.871 343.209C239.811 343.748 239.866 344.237 240.176 344.697C240.465 345.116 240.91 345.401 241.404 345.5C242.472 345.705 243.456 344.996 243.686 343.968C244.629 339.824 245.473 335.665 246.362 331.516C247.255 327.372 248.244 323.258 249.262 319.143C251.285 310.965 253.651 302.862 256.123 294.809C256.981 292.023 257.855 289.242 258.769 286.476C261.435 278.537 264.485 270.728 267.886 263.075C269.573 259.255 271.276 255.446 273.113 251.696C274.95 247.951 276.937 244.292 278.945 240.637C281.83 235.385 284.966 230.257 288.256 225.244C288.211 225.319 288.156 225.399 288.106 225.474C297.058 211.889 307.468 199.257 319.161 187.938C319.446 187.659 319.361 187.154 319.087 186.91C318.947 186.795 318.792 186.735 318.637 186.735C318.427 186.735 318.223 186.835 318.068 186.989Z" fill="#333333"/>
<path d="M153.391 290.655C152.802 290.955 152.647 291.614 152.877 292.183C158.684 306.582 164.241 321.086 169.203 335.8C169.168 335.695 169.138 335.585 169.094 335.48C174.73 352.231 179.678 369.221 183.283 386.526C185.115 395.319 186.438 404.206 187.397 413.133C188.366 422.1 189.07 431.097 189.839 440.079C190.607 449.061 191.506 458.048 192.799 466.96C193.433 471.254 194.147 475.553 195.076 479.782C195.885 483.456 196.948 487.066 198.167 490.626C202.785 504.286 210.334 516.668 217.898 528.851C222.067 535.561 226.266 542.251 230.1 549.156C232.073 552.701 233.915 556.316 235.667 559.981C236.556 561.823 237.405 563.685 238.259 565.543C238.723 566.566 239.182 567.59 239.612 568.628C240.081 569.787 240.525 570.95 241.03 572.088C241.304 572.697 242.028 573.022 242.657 572.897C243.466 572.742 243.99 571.938 243.841 571.14C243.466 569.093 242.882 567.1 242.263 565.113C241.704 563.256 241.045 561.424 240.331 559.616C238.998 556.236 237.435 552.951 235.777 549.731C232.487 543.325 228.732 537.189 224.923 531.092C221.138 525.021 217.274 518.99 213.654 512.809C210.014 506.613 206.689 500.232 203.948 493.582C203.104 491.53 202.321 489.448 201.602 487.336C200.438 483.866 199.47 480.341 198.706 476.761C197.772 472.372 197.038 467.954 196.364 463.525C195.011 454.623 194.077 445.656 193.174 436.694C192.285 427.732 191.396 418.775 190.233 409.843C189.659 405.389 189 400.941 188.231 396.512C187.467 392.108 186.543 387.735 185.55 383.376C181.965 367.569 177.372 352.016 172.144 336.688C166.902 321.326 161.005 306.213 154.924 291.174C154.754 290.77 154.325 290.545 153.896 290.545C153.716 290.545 153.546 290.585 153.391 290.655Z" fill="#333333"/>
<path d="M153.608 291.259C153.113 291.504 152.929 292.103 153.158 292.592C160.373 307.82 170.578 321.316 179.95 335.236C182.421 338.94 184.828 342.7 187.134 346.514C189.561 350.538 191.763 354.687 193.86 358.891C198.103 367.414 201.678 376.301 204.744 385.318C207.33 393.057 209.567 400.921 211.439 408.864C213.346 416.927 214.854 425.081 216.087 433.269C216.702 437.398 217.181 441.547 217.7 445.691C218.234 449.975 218.893 454.244 219.572 458.512C220.246 462.766 221.04 467.015 221.839 471.244C222.643 475.478 223.472 479.702 224.345 483.921C227.151 497.556 230.232 511.141 233.108 524.762C233.817 528.127 234.516 531.482 235.19 534.857C235.909 538.382 236.528 541.932 237.197 545.467C237.831 548.847 238.4 552.227 238.934 555.622C239.499 559.177 239.973 562.752 240.507 566.322C240.662 567.355 241.63 568.154 242.649 568.229C243.278 568.279 243.922 568.074 244.396 567.65C244.816 567.27 245.195 566.636 245.195 566.057C245.14 561.683 244.816 557.325 244.411 552.981C244.012 548.707 243.513 544.428 242.884 540.174C242.26 535.93 241.491 531.707 240.697 527.488C239.898 523.274 239.009 519.07 238.086 514.881C234.346 498.075 229.833 481.444 226.417 464.559C225.569 460.335 224.78 456.096 224.076 451.842C223.382 447.618 222.818 443.384 222.219 439.145C221.055 430.957 219.567 422.804 217.735 414.736C214.07 398.564 208.878 382.697 201.993 367.599C199.656 362.486 197.11 357.453 194.354 352.541C191.643 347.688 188.667 342.979 185.532 338.376C179.201 329.069 172.321 320.147 166.04 310.806C166.09 310.881 166.14 310.966 166.2 311.046C162.046 304.835 158.141 298.459 154.941 291.708C154.771 291.359 154.407 291.154 154.037 291.154C153.892 291.154 153.743 291.189 153.608 291.259Z" fill="#333333"/>
<path d="M184.858 355.771C184.579 355.911 184.534 356.21 184.624 356.475C184.918 357.329 185.208 358.182 185.488 359.041C185.488 359.026 185.488 359.016 185.483 359.001C189.422 370.759 193.127 382.592 196.397 394.545C199.652 406.403 202.458 418.39 204.665 430.493C205.813 436.789 206.702 443.13 207.561 449.47C208.404 455.696 209.308 461.912 210.352 468.108C212.399 480.236 214.785 492.309 217.746 504.241C222.664 524.033 229.194 543.445 237.642 562.023C238.226 563.316 239.884 563.81 241.112 563.196C241.716 562.901 242.191 562.367 242.41 561.728C242.655 561.044 242.575 560.365 242.29 559.721C239.954 554.414 237.717 549.071 235.625 543.659C233.538 538.277 231.596 532.84 229.744 527.363C225.879 515.83 222.539 504.111 219.673 492.294C216.752 480.256 214.326 468.108 212.204 455.906C211.101 449.61 210.122 443.299 208.939 437.013C207.785 430.852 206.412 424.731 204.944 418.64C202.074 406.722 198.614 394.964 194.814 383.311C194.005 380.82 193.201 378.338 192.363 375.862C192.363 375.872 192.368 375.887 192.378 375.902C190.141 369.261 187.839 362.641 185.562 356.011C185.498 355.816 185.288 355.721 185.088 355.721C185.008 355.721 184.933 355.736 184.858 355.771Z" fill="#333333"/>
<path d="M97.9109 482.318C97.5464 482.627 97.4615 483.251 97.806 483.616C112.63 498.704 128.806 512.399 143.071 528.032C145.847 531.067 148.538 534.188 151.124 537.383C153.73 540.593 156.262 543.874 158.513 547.344C169.467 564.469 173.616 584.82 183.632 602.424C186.073 606.713 188.854 610.812 191.895 614.696C194.821 618.431 197.986 621.981 201.267 625.406C204.527 628.801 207.882 632.096 211.287 635.327C214.702 638.567 218.142 641.792 221.502 645.082C224.423 647.943 227.279 650.869 230.05 653.88C231.478 655.442 232.886 657.03 234.244 658.658C234.933 659.482 235.597 660.32 236.266 661.154C236.975 662.053 237.584 663.017 238.293 663.905C238.822 664.559 239.791 664.734 240.53 664.39C241.478 663.945 241.858 662.817 241.433 661.873C240.899 660.665 240.13 659.572 239.307 658.538C238.523 657.554 237.704 656.591 236.88 655.637C235.307 653.81 233.685 652.032 232.037 650.285C228.777 646.84 225.327 643.56 221.857 640.324C214.977 633.884 207.872 627.673 201.376 620.847C196.468 615.69 191.925 610.173 188.056 604.192C188.121 604.306 188.195 604.416 188.26 604.526C182.758 596.003 178.834 586.622 175.084 577.226C171.335 567.844 167.645 558.388 162.498 549.655C161.204 547.454 159.811 545.312 158.324 543.245C156.806 541.108 155.168 539.036 153.516 536.999C150.205 532.89 146.695 528.95 143.086 525.096C135.851 517.367 128.137 510.093 120.428 502.838C113.274 496.118 106.089 489.422 99.209 482.423C99.0093 482.213 98.7497 482.103 98.4901 482.103C98.2804 482.103 98.0807 482.168 97.9109 482.318Z" fill="#333333"/>
<path d="M97.2517 481.234C96.9871 481.629 97.037 482.318 97.5063 482.562C106.468 487.395 115.405 492.308 124.208 497.456C132.93 502.549 141.538 507.866 149.866 513.593C159.057 519.923 167.885 526.754 176.193 534.218C176.108 534.138 176.023 534.063 175.938 533.988C180.002 537.648 183.911 541.457 187.681 545.422C191.236 549.156 194.431 553.24 197.252 557.564C200.482 562.602 203.214 567.939 205.57 573.446C208.007 579.123 209.999 584.984 211.876 590.876L211.726 590.417C214.642 599.673 217.153 609.065 220.089 618.321C223.359 628.616 226.959 638.812 231.812 648.478C233.724 652.292 235.811 656.057 238.243 659.562C238.458 659.806 238.702 659.986 239.007 660.096C239.456 660.251 239.965 660.231 240.4 660.031C241.249 659.622 241.753 658.473 241.274 657.604C240.325 655.902 239.361 654.219 238.433 652.517C237.464 650.704 236.54 648.877 235.637 647.04C233.844 643.355 232.197 639.595 230.659 635.801C227.608 628.327 224.992 620.683 222.541 612.989L222.7 613.503C219.735 604.097 217.009 594.596 213.733 585.279C210.593 576.342 206.928 567.545 201.995 559.436C199.454 555.272 196.628 551.288 193.463 547.573C191.815 545.651 190.063 543.824 188.285 542.036C186.463 540.199 184.6 538.397 182.718 536.624C175.284 529.659 167.35 523.234 159.097 517.262C142.681 505.36 125.037 495.304 107.227 485.653C104.346 484.09 101.461 482.538 98.5847 480.99C98.4 480.885 98.2003 480.835 98.0056 480.835C97.721 480.835 97.4464 480.955 97.2517 481.234Z" fill="#333333"/>
<path d="M139.45 516.104C139.28 516.359 139.365 516.653 139.579 516.838C141.262 518.276 142.915 519.729 144.557 521.202C144.557 521.197 144.552 521.197 144.552 521.187C144.692 521.317 144.827 521.431 144.957 521.561C144.932 521.531 144.887 521.491 144.857 521.471C156.105 531.597 166.58 542.616 175.762 554.663C178.718 558.543 181.529 562.537 184.17 566.636C184.125 566.561 184.075 566.491 184.03 566.421C186.067 569.582 188.009 572.792 189.837 576.067C191.689 579.373 193.392 582.748 195.014 586.163C196.642 589.633 198.15 593.143 199.548 596.718C200.986 600.387 202.234 604.122 203.712 607.782C205.205 611.471 206.912 615.091 208.734 618.631C209.643 620.393 210.582 622.151 211.555 623.883C212.519 625.636 213.552 627.338 214.576 629.046C218.755 635.986 223.603 642.516 228.84 648.692C231.641 651.983 234.552 655.178 237.558 658.274C237.982 658.698 238.456 658.983 239.056 659.037C239.64 659.087 240.239 658.898 240.698 658.508C241.572 657.754 241.782 656.251 240.938 655.378C236.439 650.699 232.146 645.852 228.086 640.799C226.029 638.247 224.042 635.631 222.11 632.995C221.166 631.702 220.248 630.399 219.339 629.091C218.385 627.708 217.427 626.345 216.523 624.947L216.798 625.366C212.474 618.661 208.674 611.621 205.534 604.277C204.755 602.459 204.041 600.622 203.317 598.775C202.613 596.982 201.874 595.195 201.095 593.432C199.553 589.942 197.91 586.497 196.163 583.102C192.688 576.412 188.743 569.946 184.469 563.735C180.216 557.554 175.592 551.633 170.699 545.956C161.388 535.137 151.003 525.256 140.174 515.964C140.099 515.899 140.004 515.869 139.909 515.869C139.729 515.869 139.544 515.964 139.45 516.104Z" fill="#333333"/>
<path d="M249.233 98.5677C249.044 100.19 248.774 101.803 248.554 103.421C248.205 105.897 247.9 108.379 247.686 110.875C247.451 113.596 247.346 116.322 247.441 119.058C247.516 121.395 247.806 123.796 248.709 125.968C249.428 127.716 250.761 129.243 252.619 129.778C253.013 129.892 253.422 129.982 253.837 129.992C254.396 129.997 254.855 129.922 255.405 129.753C256.089 129.548 256.708 129.099 257.197 128.584C257.506 128.255 257.791 127.93 258.036 127.561C258.345 127.106 258.6 126.627 258.83 126.138C259.234 125.299 259.529 124.425 259.788 123.537C260.427 121.29 260.827 118.968 261.131 116.657C261.561 113.351 261.795 110.026 262.035 106.696C262.125 105.328 262.21 103.945 262.33 102.567C262.414 101.618 262.469 100.64 262.694 99.706C262.774 99.3366 262.589 98.8722 262.359 98.5877C262.115 98.2931 261.745 98.0934 261.361 98.0484C260.962 98.0035 260.547 98.1233 260.243 98.383C259.908 98.6576 259.798 98.9821 259.703 99.3765C259.399 100.665 259.259 101.983 259.129 103.301C258.954 105.223 258.835 107.15 258.685 109.077C258.375 113.346 258.051 117.66 257.042 121.824C256.738 123.022 256.363 124.226 255.804 125.329C255.584 125.713 255.345 126.083 255.055 126.417C254.915 126.557 254.77 126.687 254.611 126.802C254.496 126.862 254.376 126.917 254.251 126.967C254.151 126.987 254.051 127.002 253.947 127.017C253.777 127.012 253.597 126.987 253.427 126.952C253.183 126.877 252.938 126.782 252.703 126.672C252.524 126.552 252.344 126.427 252.184 126.283C251.945 126.038 251.73 125.773 251.54 125.494C251.186 124.875 250.911 124.216 250.696 123.537C250.087 121.4 249.902 119.163 249.843 116.956C249.853 117.066 249.853 117.171 249.853 117.281C249.768 113.621 250.077 109.941 250.512 106.311C250.686 104.814 250.896 103.331 251.101 101.848C251.241 100.844 251.405 99.8259 251.515 98.8173C251.59 98.1982 251.116 97.6191 250.502 97.5442C250.467 97.5442 250.422 97.5342 250.382 97.5342C249.808 97.5342 249.303 97.9885 249.233 98.5677Z" fill="#333333"/>
<path d="M251.5 94.6482C250.911 95.1275 250.452 95.7566 250.117 96.4306C249.733 97.2245 249.523 98.0832 249.413 98.957C249.378 99.2865 249.648 99.591 249.967 99.621C250.317 99.641 250.582 99.3913 250.626 99.0568C250.656 98.8022 250.701 98.5575 250.751 98.3079C250.746 98.3379 250.741 98.3578 250.731 98.3878C250.741 98.3678 250.746 98.3379 250.751 98.3079C250.871 97.8536 251.026 97.4342 251.241 97.0198C251.42 96.7052 251.615 96.4256 251.85 96.156C252.064 95.9363 252.294 95.7366 252.554 95.5569C252.858 95.3671 253.178 95.2174 253.507 95.0975C253.852 95.0027 254.206 94.9428 254.561 94.9178C254.955 94.9128 255.33 94.9478 255.714 95.0177C256.218 95.1425 256.708 95.3272 257.167 95.5569C257.666 95.8415 258.111 96.171 258.53 96.5604C258.929 96.9598 259.289 97.3942 259.589 97.8785C259.554 97.8186 259.519 97.7687 259.474 97.7088C259.828 98.2779 260.093 98.8871 260.307 99.5211C260.397 99.7908 260.747 99.9306 260.996 99.8856C261.161 99.8557 261.316 99.7608 261.406 99.626C261.516 99.4712 261.531 99.3164 261.516 99.1367C261.471 98.3528 261.251 97.5939 260.902 96.8899C260.732 96.5454 260.507 96.2159 260.287 95.9064C260.033 95.5669 259.723 95.2673 259.414 94.9877C258.855 94.4734 258.171 94.099 257.472 93.8244C256.798 93.5548 256.064 93.425 255.34 93.395C255.27 93.395 255.2 93.385 255.125 93.385C253.812 93.385 252.534 93.8144 251.5 94.6482Z" fill="#333333"/>
<path d="M254.344 94.933C253.67 95.0678 253.01 95.3225 252.426 95.677C251.817 96.0564 251.298 96.5307 250.879 97.1049C250.434 97.694 250.135 98.413 249.975 99.132C249.93 99.3067 249.905 99.4715 249.99 99.6412C250.065 99.811 250.205 99.9308 250.374 99.9957C250.544 100.066 250.729 100.051 250.894 99.9757C251.033 99.9058 251.203 99.7611 251.238 99.5963C251.328 99.1919 251.463 98.8024 251.647 98.428C251.812 98.1534 251.997 97.8938 252.212 97.6491C252.431 97.4344 252.671 97.2497 252.931 97.0699C253.23 96.8902 253.55 96.7604 253.884 96.6406C254.299 96.5157 254.723 96.4409 255.157 96.4109C255.632 96.3959 256.101 96.4259 256.575 96.5157C257.045 96.6256 257.504 96.7904 257.943 96.9951C258.308 97.2048 258.647 97.4344 258.967 97.709C259.246 97.9836 259.491 98.2782 259.716 98.5977C259.95 98.9972 260.135 99.4116 260.285 99.8509C260.345 100.056 260.395 100.255 260.43 100.465C260.5 100.76 260.734 100.989 261.034 101.014C261.388 101.034 261.743 100.77 261.758 100.405C261.763 100.051 261.743 99.7011 261.698 99.3516C261.638 98.9672 261.513 98.5977 261.373 98.2433C261.099 97.5443 260.619 96.9351 260.07 96.4309C259.042 95.4822 257.699 94.978 256.321 94.8332C256.121 94.8082 255.916 94.8032 255.707 94.8032C255.247 94.8032 254.788 94.8482 254.344 94.933Z" fill="#333333"/>
<path d="M259.645 98.0384C259.67 98.0934 259.675 98.1433 259.69 98.1882C259.675 98.1433 259.66 98.0934 259.645 98.0384ZM254.223 95.7368C254.178 95.7517 254.133 95.7667 254.093 95.7817C254.143 95.7667 254.188 95.7517 254.223 95.7368ZM256.195 93.6398C255.556 93.6897 254.942 93.8745 254.348 94.0891C253.699 94.3188 253.1 94.6533 252.521 95.0328C251.387 95.7667 250.449 96.8152 249.824 98.0035C249.72 98.2132 249.839 98.4928 250.009 98.6126C250.219 98.7674 250.608 98.7424 250.743 98.4928C250.968 98.0784 251.232 97.6939 251.552 97.3444C251.876 97.0099 252.231 96.7203 252.615 96.4707C253.085 96.1861 253.579 95.9564 254.093 95.7817C254.078 95.7817 254.063 95.7867 254.053 95.7967C254.573 95.6319 255.107 95.5371 255.646 95.4921C256.115 95.4771 256.565 95.5071 257.009 95.582C257.334 95.6619 257.648 95.7717 257.948 95.9115C258.187 96.0463 258.407 96.2011 258.622 96.3808C258.826 96.5855 259.011 96.8152 259.171 97.0599C259.396 97.4343 259.57 97.8337 259.715 98.2481C259.765 98.4429 259.815 98.6426 259.855 98.8273C259.945 99.2117 260.239 99.5013 260.634 99.5363C261.088 99.5762 261.533 99.2167 261.557 98.7524C261.587 98.353 261.572 97.9536 261.543 97.5491C261.498 97.1647 261.393 96.8152 261.278 96.4557C261.163 96.1212 260.978 95.8017 260.779 95.5121C260.559 95.1926 260.299 94.9329 260.015 94.6783C259.765 94.4436 259.471 94.2839 259.171 94.1341C258.891 93.9843 258.602 93.8695 258.297 93.7946C257.973 93.7047 257.638 93.6448 257.304 93.6148C257.174 93.6098 257.039 93.5999 256.904 93.5999C256.67 93.5999 256.425 93.6148 256.195 93.6398Z" fill="#333333"/>
<path d="M259.011 95.1127C258.812 95.4022 258.866 95.8166 259.156 96.0163C259.431 96.1961 259.685 96.3858 259.93 96.6005C260.274 96.93 260.574 97.2845 260.839 97.6939C261.008 97.9985 261.158 98.298 261.268 98.6276C261.363 98.9321 261.423 99.2317 261.468 99.5612C261.498 99.8408 261.802 100.026 262.067 99.9806C262.366 99.9307 262.521 99.6561 262.496 99.3765C262.401 98.5227 262.182 97.7089 261.772 96.96C261.328 96.1412 260.659 95.4821 259.915 94.9729C259.795 94.893 259.66 94.853 259.526 94.853C259.326 94.853 259.136 94.9429 259.011 95.1127Z" fill="#333333"/>
<path d="M254.286 95.1377C254.271 95.1377 254.256 95.1427 254.241 95.1427C254.256 95.1427 254.271 95.1427 254.286 95.1377ZM259.768 96.9501C259.758 96.9501 259.753 96.9451 259.753 96.9351C259.743 96.9351 259.743 96.9301 259.743 96.9301C259.753 96.9351 259.758 96.9451 259.768 96.9501ZM251.929 94.4836C251.649 94.5935 251.54 94.9579 251.664 95.2176C251.714 95.3574 251.834 95.4622 251.974 95.5071C252.124 95.5671 252.249 95.5421 252.398 95.4922C252.428 95.4772 252.463 95.4672 252.493 95.4622C253.062 95.2924 253.651 95.1776 254.241 95.1427C254.211 95.1427 254.176 95.1427 254.136 95.1427C254.191 95.1427 254.236 95.1427 254.286 95.1377C255.069 95.1127 255.858 95.1926 256.617 95.3673L256.457 95.3274C257.131 95.4822 257.766 95.7069 258.385 96.0114C258.869 96.261 259.323 96.5656 259.743 96.9301C259.733 96.9151 259.723 96.9051 259.708 96.9001C259.723 96.9051 259.738 96.9201 259.753 96.9351C259.773 96.96 259.803 96.98 259.828 97.005C259.813 96.99 259.788 96.975 259.768 96.9501C260.062 97.2396 260.322 97.5492 260.547 97.8987C260.706 98.1833 260.841 98.4729 260.946 98.7824C261.026 99.062 261.081 99.3516 261.101 99.6412C261.106 99.8509 261.106 100.056 261.091 100.27C261.081 100.575 261.3 100.849 261.61 100.869C261.91 100.899 262.199 100.665 262.209 100.36C262.249 99.781 262.209 99.2018 262.084 98.6426C261.954 98.0634 261.71 97.5142 261.39 97.0249C261.091 96.5606 260.736 96.1712 260.332 95.7967C259.877 95.3823 259.353 95.0778 258.804 94.7932C258.295 94.5335 257.751 94.3588 257.196 94.214C256.592 94.0542 255.958 93.9644 255.324 93.9344C255.174 93.9294 255.025 93.9194 254.88 93.9194C253.871 93.9194 252.858 94.0992 251.929 94.4836Z" fill="#333333"/>
<path d="M265.942 42.2789C265.942 42.2839 265.942 42.2839 265.937 42.2939C265.942 42.2839 265.942 42.2789 265.952 42.2639C265.942 42.2689 265.942 42.2789 265.942 42.2789ZM265.897 42.4486C265.912 42.3987 265.927 42.3438 265.937 42.2939L265.897 42.4486ZM265.862 42.6134C265.847 42.6583 265.837 42.6933 265.837 42.7382C265.847 42.6883 265.852 42.6434 265.867 42.5884C265.867 42.5984 265.867 42.6034 265.862 42.6134ZM285.963 4.78308C286.477 4.92787 286.976 5.11759 287.466 5.35725C287.72 5.51203 287.95 5.67679 288.17 5.86152C288.399 6.10617 288.609 6.36579 288.799 6.64039C289.044 7.08475 289.238 7.54409 289.398 8.0184C289.733 9.16674 289.872 10.345 289.932 11.5383C290.052 15.7772 289.268 20.031 288.32 24.1351C288.34 24.0303 288.369 23.9204 288.394 23.8256C287.336 28.354 285.963 32.7926 284.57 37.2312C281.809 46.0534 277.845 54.4463 273.476 62.5795C273.506 62.5196 273.541 62.4597 273.581 62.3948C270.935 67.2678 268.149 72.0658 265.343 76.8389C263.86 79.3353 262.522 81.9066 261.264 84.5278C260.64 85.8209 260.045 87.1091 259.441 88.4072C259.097 89.1561 258.757 89.91 258.403 90.659C258.493 89.4158 258.603 88.1676 258.712 86.9244C259.092 82.7754 259.581 78.6313 260.135 74.4973C261.573 63.8477 263.411 53.233 265.832 42.7582C265.832 42.7532 265.832 42.7432 265.837 42.7382C265.817 42.8181 265.797 42.903 265.772 42.9879C265.832 42.7532 265.882 42.5135 265.942 42.2789C267.15 37.1713 268.478 32.0936 270.081 27.1008C271.499 22.6972 273.112 18.3385 275.194 14.2144C275.378 13.835 275.573 13.4655 275.773 13.0911C276.896 11.049 278.179 9.06189 279.772 7.34937C280.431 6.68034 281.15 6.06622 281.934 5.54697C282.393 5.28735 282.877 5.05768 283.377 4.88293C283.791 4.76311 284.225 4.68822 284.645 4.65826C285.099 4.65327 285.529 4.6982 285.963 4.78308ZM284.43 1.5178C283.132 1.56773 281.854 2.01208 280.736 2.65116C277.845 4.29878 275.758 7.06977 274.09 9.87072C271.823 13.6652 270.106 17.7693 268.623 21.9183C266.861 26.8362 265.438 31.8589 264.159 36.9116C261.453 47.6511 259.456 58.5853 257.869 69.5445C257.22 74.058 256.63 78.5714 256.156 83.1049C255.827 86.2354 255.537 89.3758 255.402 92.5213C255.382 93.1204 255.367 93.7345 255.367 94.3436C255.372 94.743 255.427 95.0826 255.692 95.4021C255.936 95.7067 256.291 95.8964 256.69 95.9363C257.07 95.9663 257.449 95.8564 257.744 95.6168C257.864 95.5119 257.988 95.3821 258.093 95.2224C258.248 95.2473 258.403 95.2473 258.568 95.2224C258.882 95.1724 259.292 94.9727 259.456 94.6682C259.721 94.1938 259.971 93.7195 260.23 93.2402C260.215 93.2652 260.2 93.2951 260.19 93.3251C261.209 91.5177 262.182 89.6904 263.121 87.843C264.075 85.9657 265.008 84.0835 265.997 82.2261C267.165 80.0892 268.448 78.0222 269.691 75.9352C270.975 73.7784 272.233 71.6065 273.476 69.4246C275.987 65.031 278.394 60.5525 280.611 56.004C282.808 51.5006 284.785 46.8722 286.467 42.1441C287.416 39.4829 288.245 36.7818 289.058 34.0807C289.872 31.3846 290.646 28.6636 291.29 25.9125C292.044 22.7671 292.688 19.5867 293.028 16.3613C293.178 14.9234 293.257 13.4705 293.222 12.0176C293.188 10.6646 293.083 9.30654 292.768 7.99344C292.474 6.75024 292.009 5.60689 291.295 4.54842C290.646 3.5948 289.728 2.9008 288.704 2.39154C287.496 1.78241 286.173 1.50781 284.83 1.50781C284.695 1.50781 284.565 1.50781 284.43 1.5178Z" fill="#333333"/>
<path d="M265.157 82.4408L265.147 82.4458C265.177 82.4108 265.202 82.3659 265.217 82.321C265.202 82.3659 265.177 82.4008 265.157 82.4408ZM320.183 22.9967C320.777 23.1415 321.346 23.3512 321.885 23.6258C322.28 23.8555 322.644 24.1151 322.974 24.4196C323.263 24.7142 323.508 25.0338 323.732 25.3733C323.952 25.7577 324.117 26.1571 324.257 26.5765C324.426 27.2056 324.516 27.8397 324.551 28.4788C324.576 29.6571 324.421 30.8204 324.182 31.9637C323.663 34.0907 322.849 36.1177 321.825 38.0549C319.783 41.7696 317.077 45.0598 314.166 48.1254C309.418 53.0533 304.096 57.367 298.993 61.9204C296.297 64.322 293.711 66.8234 291.06 69.2798C288.029 72.0957 284.963 74.8717 281.843 77.5778C278.038 80.893 274.124 84.0784 270.11 87.129C268.148 88.6219 266.156 90.0748 264.134 91.4827C263.15 92.1617 262.166 92.8457 261.173 93.5198C260.519 93.9691 259.86 94.4185 259.211 94.8778C260.948 90.624 262.98 86.4949 265.147 82.4458C265.147 82.4558 265.147 82.4558 265.147 82.4558C265.147 82.4458 265.157 82.4408 265.157 82.4408C265.177 82.3959 265.202 82.3559 265.222 82.316C265.222 82.316 265.222 82.321 265.217 82.321C269.311 74.7819 273.83 67.4924 278.068 60.0382C281.563 53.8571 285.113 47.681 289.347 41.9843C291.015 39.7375 292.797 37.5856 294.724 35.5585C294.719 35.5635 294.709 35.5735 294.704 35.5785C297.69 32.473 301 29.717 304.65 27.4253C306.008 26.6065 307.406 25.8426 308.844 25.1586C310.152 24.5295 311.5 23.9753 312.893 23.5409C312.813 23.5559 312.723 23.5859 312.648 23.6108C314.181 23.1415 315.769 22.8319 317.382 22.7571C317.287 22.7571 317.192 22.767 317.107 22.767C318.141 22.7271 319.169 22.797 320.183 22.9967ZM316.418 20.74C313.487 21.0695 310.696 22.128 308.065 23.4161C304.83 24.9938 301.784 26.966 298.993 29.2327C296.272 31.4295 293.816 33.9359 291.554 36.5871C286.971 41.9693 283.261 48.0355 279.786 54.1667C278.083 57.1623 276.436 60.183 274.733 63.1686C272.766 66.6386 270.734 70.0687 268.757 73.5237C264.863 80.3189 261.098 87.2189 258.127 94.4734C258.017 94.773 258.177 95.1125 258.467 95.2223C258.527 95.2473 258.597 95.2623 258.651 95.2623C258.467 95.3921 258.282 95.5269 258.092 95.6617C257.683 95.9563 257.573 96.5654 257.773 97.0097C258.037 97.6039 258.706 97.8036 259.276 97.5789C261.118 96.8849 262.88 95.9563 264.593 94.9777C266.41 93.9442 268.178 92.7908 269.91 91.6125C273.38 89.2709 276.69 86.6996 279.896 84.0185C286.207 78.7661 292.148 73.0893 298.03 67.3576C302.878 62.6244 308.13 58.3107 312.968 53.5675C315.509 51.0611 317.976 48.4499 320.168 45.634C322.22 42.9978 324.032 40.1269 325.325 37.0414C325.969 35.4837 326.434 33.876 326.768 32.2284C327.078 30.7106 327.182 29.1478 326.998 27.605C326.848 26.3519 326.429 25.1386 325.745 24.0751C325.165 23.1715 324.367 22.4175 323.448 21.8833C321.88 20.9547 320.088 20.6301 318.285 20.6301C317.666 20.6301 317.032 20.6701 316.418 20.74Z" fill="#333333"/>
<path d="M319.047 58.8299C319.037 58.8349 319.032 58.8349 319.017 58.8449C319.037 58.8349 319.057 58.8299 319.072 58.8199C319.067 58.8199 319.057 58.8299 319.047 58.8299ZM341.294 55.7594C341.259 55.7444 341.215 55.7394 341.16 55.7294C342.108 55.9091 343.027 56.1588 343.901 56.5532C344.345 56.7679 344.759 57.0125 345.144 57.3171C345.388 57.5368 345.613 57.7764 345.813 58.0361C345.983 58.2957 346.122 58.5703 346.237 58.8599C346.347 59.1894 346.412 59.5239 346.442 59.8784C346.467 60.3677 346.427 60.852 346.347 61.3413C346.152 62.26 345.828 63.1337 345.428 63.9875C345.463 63.9126 345.493 63.8477 345.533 63.7728C344.894 65.1208 344.095 66.379 343.152 67.5423C341.814 69.12 340.266 70.4931 338.568 71.6913C338.568 71.6913 338.578 71.6863 338.583 71.6863C335.568 73.7633 332.223 75.3011 328.792 76.5493C323.206 78.5215 317.414 79.7996 311.622 80.9579C308.976 81.4922 306.34 81.9715 303.699 82.5157C300.558 83.1647 297.433 83.9436 294.282 84.6276C288.341 85.9208 282.365 87.159 276.478 88.7117C274.316 89.2709 272.164 89.89 270.032 90.5541C273.113 88.3672 276.139 86.0955 279.134 83.8088C284.432 79.7796 289.689 75.7055 295.136 71.881C295.121 71.896 295.106 71.911 295.081 71.916C302.55 66.6935 310.424 61.9504 319.017 58.8449C319.007 58.8449 318.992 58.8499 318.987 58.8599C319.007 58.8449 319.022 58.8349 319.047 58.8299C319.067 58.8199 319.081 58.8149 319.096 58.8149C319.086 58.8149 319.081 58.8149 319.072 58.8199C323.91 57.1174 328.952 55.9291 334.065 55.5297C334 55.5297 333.94 55.5297 333.875 55.5397C336.352 55.3499 338.848 55.32 341.294 55.7594ZM331.888 54.3164C328.563 54.7358 325.288 55.4648 322.082 56.4284C315.302 58.4704 308.921 61.6359 302.89 65.3205C296.759 69.0651 290.972 73.3589 285.275 77.7276C282.41 79.9194 279.559 82.1362 276.683 84.3231C275.255 85.4065 273.827 86.4799 272.389 87.5384C271.7 88.0427 271.011 88.547 270.312 89.0512C269.972 89.2959 269.628 89.5455 269.278 89.7902C269.109 89.92 268.939 90.0348 268.759 90.1646L268.42 90.4093C268.35 90.4342 268.29 90.4792 268.24 90.5341C268.225 90.5491 268.205 90.5541 268.19 90.569C267.95 90.7238 267.721 90.8936 267.491 91.0533C267.182 91.268 266.872 91.4827 266.552 91.6974C265.479 92.0719 264.411 92.4663 263.352 92.8907C262.658 93.1653 261.969 93.4549 261.285 93.7544C260.611 94.069 259.937 94.3885 259.308 94.778C259.098 94.8828 258.938 95.0326 258.814 95.2323C258.634 95.5069 258.569 95.8564 258.639 96.1809C258.784 96.83 259.493 97.3492 260.162 97.1745C260.791 97.0047 261.41 96.7751 262.024 96.5604C262.678 96.3307 263.332 96.091 263.981 95.8614C265.838 95.1923 267.706 94.5483 269.583 93.9442C271.59 93.2951 273.612 92.696 275.639 92.1168C279.728 90.9635 283.837 89.905 287.966 88.9014C292.031 87.9179 296.1 86.9243 300.164 85.8958C302.615 85.2717 305.082 84.7524 307.558 84.2432C313.245 83.0549 318.957 81.9066 324.524 80.244C327.389 79.3952 330.215 78.3866 332.941 77.1784C335.503 76.045 337.959 74.682 340.221 73.0144C342.318 71.4716 344.185 69.6043 345.628 67.4375C346.407 66.2742 347.041 65.011 347.54 63.6979C347.975 62.5545 348.264 61.3113 348.214 60.0781C348.174 59.1045 347.91 58.1309 347.346 57.3071C346.796 56.5083 346.077 55.8942 345.234 55.4248C344.33 54.9206 343.346 54.611 342.338 54.3863C341.215 54.1417 340.071 54.0169 338.923 53.9669C338.419 53.937 337.909 53.927 337.405 53.927C335.563 53.927 333.71 54.0868 331.888 54.3164Z" fill="#333333"/>
<path d="M271.458 99.0619C271.428 99.0619 271.408 99.0569 271.378 99.0469C271.328 99.0419 271.268 99.0319 271.214 99.0269C271.298 99.0319 271.378 99.0569 271.458 99.0619ZM351.967 91.1683C351.987 91.2382 352.017 91.3131 352.042 91.378C352.012 91.3131 351.987 91.2382 351.967 91.1683ZM332.605 85.7012C336.13 85.9359 339.655 86.2254 343.13 86.8346C343.1 86.8346 343.065 86.8296 343.025 86.8196C345.157 87.204 347.309 87.6933 349.291 88.597C349.855 88.8716 350.394 89.1862 350.883 89.5756C351.108 89.7703 351.313 89.985 351.497 90.2197C351.682 90.5192 351.832 90.8388 351.957 91.1533C352.097 91.5727 352.196 91.9921 352.246 92.4215C352.256 92.7111 352.246 93.0007 352.201 93.2902C352.142 93.5549 352.062 93.8095 351.957 94.0591C351.812 94.3587 351.632 94.6383 351.433 94.8979C351.008 95.3822 350.529 95.8016 350.02 96.1711C348.781 97.0099 347.393 97.619 345.995 98.1232C343.364 99.0419 340.633 99.6261 337.892 100.095C334.657 100.65 331.392 101.014 328.116 101.274C319.973 101.893 311.785 102.013 303.627 101.693C302.149 101.633 300.671 101.568 299.198 101.448C297.376 101.309 295.583 100.999 293.791 100.67C293.911 100.695 294.036 100.715 294.155 100.729C288.409 99.686 282.732 98.308 277.03 97.0748C274.134 96.4557 271.229 95.8765 268.303 95.4072C267.858 95.3423 267.414 95.2774 266.97 95.2174C267.853 94.868 268.742 94.5334 269.631 94.2139C269.571 94.2389 269.521 94.2538 269.461 94.2738C276.291 91.8373 283.356 90.1198 290.491 88.8067C293.941 88.1676 297.416 87.6484 300.896 87.204C304.915 86.6948 308.954 86.2654 312.988 85.9459C312.923 85.9508 312.843 85.9508 312.773 85.9608C319.374 85.4416 325.999 85.2469 332.605 85.7012ZM301.679 85.5015C294.63 86.4202 287.615 87.6883 280.71 89.4208C275.098 90.8388 269.541 92.5912 264.209 94.8779C264.099 94.868 263.994 94.853 263.884 94.848C263.2 94.7731 262.506 94.7282 261.817 94.6832C261.038 94.6333 260.269 94.6533 259.49 94.6083C258.757 94.5584 258.122 95.1575 258.083 95.8765C258.038 96.6154 258.622 97.2395 259.356 97.2845C259.61 97.2994 259.87 97.3344 260.12 97.3743C260.135 97.4193 260.15 97.4642 260.174 97.5091C260.349 97.8387 260.749 97.9535 261.083 97.7937C261.248 97.7138 261.408 97.634 261.572 97.5491C261.777 97.579 261.982 97.604 262.182 97.634C263.225 97.7588 264.254 97.9086 265.292 98.0534C267.269 98.3429 269.246 98.6725 271.214 99.0269C271.194 99.017 271.174 99.012 271.144 99.012C271.224 99.0269 271.298 99.0319 271.378 99.0469C271.428 99.0619 271.483 99.0719 271.528 99.0769C271.503 99.0769 271.483 99.0719 271.458 99.0619C280.001 100.65 288.424 102.826 297.006 104.165C297.85 104.289 298.719 104.349 299.568 104.414C300.931 104.509 302.304 104.579 303.667 104.629C307.471 104.764 311.271 104.784 315.08 104.709C319.678 104.629 324.277 104.394 328.855 103.97C333.099 103.575 337.353 103.026 341.517 102.073C343.344 101.648 345.157 101.124 346.929 100.48C348.312 99.9756 349.675 99.3615 350.913 98.5277C352.032 97.7937 353.045 96.93 353.749 95.7716C354.069 95.2624 354.313 94.6832 354.433 94.0991C354.573 93.4151 354.593 92.781 354.508 92.087C354.433 91.4429 354.204 90.8138 353.934 90.2197C353.604 89.4358 353.12 88.7318 352.471 88.1776C351.587 87.4037 350.549 86.8845 349.475 86.4401C348.267 85.9508 347.019 85.6213 345.751 85.3467C343.08 84.7426 340.329 84.428 337.588 84.1984C334.777 83.9537 331.946 83.774 329.125 83.6991C328.011 83.6691 326.908 83.6492 325.805 83.6492C317.736 83.6492 309.673 84.473 301.679 85.5015Z" fill="#333333"/>
<path d="M253.743 90.9336C253.733 90.9186 253.728 90.8936 253.718 90.8836C253.713 90.8437 253.698 90.8137 253.688 90.7838C253.673 90.7538 253.668 90.7239 253.663 90.6939C253.683 90.7788 253.713 90.8537 253.743 90.9336ZM253.958 91.5976C253.943 91.5427 253.918 91.4828 253.903 91.4278C253.883 91.3679 253.868 91.313 253.848 91.2531L253.958 91.5976ZM256.744 91.4129L256.859 91.7574L256.814 91.6226C256.794 91.5477 256.764 91.4828 256.744 91.4129ZM256.674 91.1982C256.714 91.313 256.749 91.4229 256.789 91.5427C256.789 91.5427 256.789 91.5427 256.789 91.5327C256.764 91.4828 256.749 91.4378 256.734 91.3779C256.714 91.318 256.689 91.2581 256.674 91.1982ZM248.226 3.47997C248.611 3.56984 248.985 3.69466 249.345 3.85942C249.759 4.0791 250.149 4.34872 250.513 4.64329C251.037 5.12759 251.492 5.68179 251.896 6.26594C252.66 7.4742 253.224 8.7873 253.683 10.1354C254.308 12.0775 254.722 14.0697 255.036 16.0867C255.386 18.3784 255.601 20.6901 255.74 23.0117C255.735 22.9718 255.735 22.9368 255.735 22.9069C256.21 31.6592 255.676 40.4415 254.892 49.1639C254.797 50.2823 254.692 51.4007 254.602 52.5191C254.248 56.753 254.113 61.0068 254.128 65.2607C254.143 69.6044 254.342 73.9481 254.662 78.2769C254.817 80.3788 254.987 82.4758 255.216 84.5728C255.336 85.6712 255.476 86.7596 255.626 87.858C255.641 87.9229 255.646 87.9928 255.656 88.0577C253.893 82.5457 252.226 76.9937 250.663 71.4118C248.126 62.3549 245.815 53.2231 243.957 44.0114C242.46 36.637 241.211 29.1628 240.782 21.6437C240.582 17.7943 240.572 13.865 241.336 10.0704C241.611 8.83723 241.975 7.64395 242.515 6.5056C242.804 5.95639 243.134 5.43714 243.528 4.95783C243.808 4.65327 244.122 4.37867 244.462 4.12404C244.796 3.92433 245.136 3.75457 245.5 3.61478C245.92 3.48995 246.349 3.41506 246.788 3.38511C247.268 3.37013 247.752 3.40009 248.226 3.47997ZM245.44 0.199711C239.669 1.47287 238.201 8.20814 237.796 13.2409C237.477 17.0603 237.677 20.9148 238.001 24.7193C238.396 29.1529 239.055 33.5615 239.833 37.9501C241.486 47.3566 243.753 56.6581 246.239 65.8698C248.231 73.2591 250.388 80.6185 252.75 87.893C253.054 88.8566 253.364 89.8202 253.688 90.7838C253.698 90.8137 253.713 90.8437 253.718 90.8836C253.743 90.9336 253.758 90.9835 253.773 91.0434C253.763 91.0085 253.748 90.9685 253.743 90.9336C253.763 91.0135 253.793 91.0983 253.818 91.1682C253.778 91.0534 253.743 90.9386 253.703 90.8237C253.743 90.9336 253.773 91.0384 253.808 91.1383C253.838 91.2381 253.878 91.333 253.903 91.4278C254.218 92.3615 254.537 93.2902 254.862 94.2288C254.972 94.5483 255.326 94.808 255.641 94.9128C255.97 95.0326 256.35 95.0077 256.674 94.8529C256.994 94.6981 257.238 94.4085 257.363 94.074C257.488 93.7046 257.423 93.395 257.298 93.0355L257.208 92.7859C257.253 92.7909 257.288 92.8009 257.333 92.8059C257.678 92.8308 258.017 92.711 258.277 92.4913C258.496 92.2916 258.721 91.9421 258.706 91.6226C258.691 91.2681 258.666 90.9086 258.651 90.5541C258.661 90.0598 258.691 89.5605 258.676 89.0663C258.661 88.4222 258.621 87.7781 258.586 87.1391C258.521 85.9008 258.437 84.6626 258.357 83.4244C258.207 81.1377 258.047 78.851 257.922 76.5643C257.922 76.5843 257.922 76.6093 257.922 76.6292C257.498 68.486 257.423 60.2879 258.172 52.1596C258.467 48.9243 258.756 45.694 258.971 42.4586C259.29 37.7954 259.46 33.1321 259.425 28.4589C259.41 25.9125 259.295 23.3662 259.106 20.8299C258.926 18.5432 258.651 16.2565 258.237 14.0048C257.847 11.8978 257.303 9.83079 256.544 7.83368C255.905 6.1561 255.036 4.54343 253.893 3.17042C252.825 1.91224 251.422 0.888715 249.849 0.389437C249.015 0.129812 248.136 0 247.253 0C246.639 0 246.025 0.0649059 245.44 0.199711Z" fill="#333333"/>
<path d="M241.761 77.0438C241.801 77.0987 241.831 77.1486 241.871 77.2085C241.831 77.1536 241.801 77.0987 241.761 77.0438ZM214.696 8.33809C213.078 9.32166 212.229 11.1241 211.635 12.8466C211.086 14.4493 210.806 16.1568 210.696 17.8443C210.467 21.4691 211.161 25.1138 212.184 28.5688C213.293 32.3234 214.85 35.9482 216.583 39.4531C218.226 42.7833 220.058 46.0136 221.945 49.209C223.857 52.4543 225.785 55.6946 227.707 58.93C231.596 65.4605 235.575 71.9312 239.809 78.2371C243.988 84.4581 248.417 90.5093 253.36 96.1412C253.759 96.6005 254.478 96.6454 254.937 96.241C255.397 95.8466 255.432 95.1276 255.032 94.6683C250.164 89.1013 245.806 83.1 241.707 76.9489C241.717 76.9689 241.722 76.9839 241.737 76.9988C236.584 69.2251 231.821 61.2017 227.108 53.1433C223.463 46.9273 219.718 40.7462 216.877 34.0909C216.263 32.643 215.704 31.1751 215.19 29.6872C214.241 26.7764 213.517 23.7708 213.293 20.7102C213.208 18.9727 213.293 17.2302 213.627 15.5227C213.872 14.4592 214.211 13.4108 214.666 12.4172C214.895 11.9978 215.145 11.5884 215.445 11.2089C215.589 11.0542 215.744 10.9144 215.909 10.7796C216.034 10.7147 216.154 10.6547 216.278 10.6048C216.383 10.5749 216.488 10.5499 216.598 10.5449C216.763 10.5449 216.922 10.5499 217.087 10.5749C217.367 10.6547 217.641 10.7596 217.911 10.8844C218.62 11.2688 219.274 11.7581 219.893 12.2924C221.236 13.4956 222.449 14.8437 223.598 16.2117C224.811 17.6746 225.939 19.2024 226.988 20.7801C231.017 26.9162 234.033 33.6315 236.699 40.4467C238.042 43.8867 239.285 47.3767 240.523 50.8616C241.761 54.3566 243.025 57.8415 244.203 61.3565C246.16 67.3079 247.838 73.3391 249.685 79.3205C250.639 82.3861 251.632 85.4317 252.721 88.4523C253.819 91.4979 255.067 94.4736 256.425 97.4193C256.805 98.2431 257.838 98.5677 258.637 98.1732C259.476 97.7688 259.755 96.7952 259.396 95.9664C257.579 91.7725 255.951 87.5236 254.508 83.1899C254.513 83.2199 254.523 83.2398 254.528 83.2648C252.98 78.5566 251.587 73.7935 250.134 69.0503C249.395 66.6189 248.632 64.1874 247.833 61.7709C247.079 59.4892 246.26 57.2174 245.446 54.9607C242.665 47.2718 239.989 39.558 236.604 32.1087C234.901 28.3591 232.999 24.6795 230.797 21.1795C228.67 17.7844 226.259 14.5541 223.433 11.6982C222.739 10.9942 221.995 10.3302 221.236 9.70112C220.517 9.11197 219.748 8.64764 218.915 8.25321C218.265 7.94366 217.522 7.76392 216.798 7.76392C216.059 7.76392 215.33 7.94366 214.696 8.33809Z" fill="#333333"/>
<path d="M206.064 43.8119C206.154 43.8568 206.239 43.9018 206.319 43.9467C206.239 43.9018 206.149 43.8568 206.064 43.8119ZM202.37 42.5388C203.748 42.8483 205.066 43.3326 206.339 43.9517C208.261 44.9553 210.014 46.2284 211.651 47.6464C217.503 52.8389 221.742 59.5092 226.65 65.5355C229.855 69.4548 233.33 73.1595 236.7 76.934C238.393 78.8313 240.035 80.7585 241.628 82.7356C243.121 84.583 244.539 86.4952 245.977 88.3925C246.766 89.436 247.574 90.4745 248.413 91.483C245.088 90.0651 241.798 88.5622 238.553 86.9546L238.812 87.0894C229.695 82.5659 220.843 77.2885 213.139 70.6032C213.214 70.6631 213.289 70.728 213.364 70.7979C209.265 67.2231 205.535 63.2438 202.48 58.7403C200.772 56.1541 199.239 53.3881 198.216 50.4473C197.776 49.1142 197.452 47.7412 197.347 46.3383C197.332 45.7491 197.357 45.16 197.462 44.5858C197.532 44.2862 197.632 43.9966 197.746 43.7171C197.851 43.5323 197.971 43.3476 198.106 43.1778C198.236 43.033 198.386 42.9082 198.54 42.7884C198.72 42.6885 198.905 42.6037 199.09 42.5238C199.444 42.4189 199.799 42.359 200.178 42.3241C200.912 42.3091 201.646 42.399 202.37 42.5388ZM197.377 40.7463C196.319 41.4353 195.615 42.4489 195.295 43.6721C194.951 44.9752 195 46.3532 195.185 47.6813C195.395 49.1792 195.854 50.637 196.378 52.045C196.958 53.6277 197.722 55.1306 198.525 56.5984C199.424 58.2261 200.428 59.7788 201.506 61.2966C203.673 64.3622 206.209 67.1781 208.92 69.7894C214.642 75.3014 221.223 79.8898 228.063 83.899C235.821 88.4524 244.005 92.2669 252.343 95.637C252.862 96.1013 253.406 96.5507 253.95 96.9801C254.589 97.4694 255.583 97.3296 256.167 96.8253C256.517 96.5157 256.736 96.0714 256.766 95.6021C256.806 95.1577 256.661 94.5785 256.322 94.259C252.872 91.0536 250.066 87.2641 247.175 83.5645C244.109 79.6401 240.684 76.0004 237.249 72.3956C233.864 68.8557 230.459 65.3208 227.349 61.5313C224.932 58.6005 222.67 55.5499 220.214 52.6491C217.628 49.6035 214.857 46.6878 211.651 44.2712C208.706 42.0495 205.161 40.2571 201.436 39.9225C201.177 39.9076 200.912 39.8926 200.647 39.8926C199.499 39.8926 198.326 40.1173 197.377 40.7463Z" fill="#333333"/>
<path d="M142.804 163.998C142.834 164.083 142.864 164.173 142.884 164.253C142.854 164.173 142.824 164.083 142.804 163.998ZM139.669 152.045C139.234 152.14 138.84 152.41 138.595 152.789C138.381 153.114 138.231 153.638 138.361 154.033C138.875 155.635 139.699 157.128 140.438 158.636C141.336 160.473 142.21 162.341 142.894 164.273C143.239 165.321 143.528 166.395 143.638 167.498C143.653 167.868 143.638 168.237 143.588 168.612C143.553 168.766 143.508 168.916 143.448 169.056C143.374 169.181 143.294 169.306 143.204 169.425C143.124 169.515 143.034 169.595 142.944 169.66C142.869 169.705 142.789 169.75 142.704 169.78C142.61 169.805 142.52 169.825 142.425 169.84C142.26 169.84 142.09 169.825 141.921 169.805C141.596 169.73 141.287 169.62 140.982 169.475C140.143 169.071 139.389 168.522 138.675 167.913C136.389 165.925 134.501 163.494 132.784 161.007C132.389 160.428 131.995 159.844 131.64 159.235C131.406 158.836 130.936 158.641 130.507 158.856C130.113 159.055 129.893 159.6 130.128 159.999C131.076 161.582 132.145 163.109 133.253 164.592C134.701 166.535 136.249 168.442 138.076 170.039C139.524 171.308 141.486 172.681 143.528 172.161C144.572 171.892 145.49 171.158 146.02 170.234C146.669 169.086 146.744 167.803 146.649 166.52C146.549 165.336 146.279 164.163 145.92 163.035C145.485 161.627 144.956 160.249 144.372 158.901C143.883 157.762 143.359 156.634 142.819 155.52C142.39 154.657 141.966 153.778 141.501 152.934C141.202 152.37 140.627 152.01 140.003 152.01C139.894 152.01 139.789 152.025 139.669 152.045Z" fill="#333333"/>
<path d="M138.407 152.979C137.613 153.254 136.829 153.578 136.07 153.938C135.177 154.367 134.363 154.886 133.554 155.455C132.126 156.469 130.828 157.787 130.059 159.385C129.939 159.614 129.864 159.829 129.914 160.104C129.969 160.363 130.124 160.593 130.344 160.733C130.558 160.863 130.818 160.923 131.072 160.863C131.302 160.823 131.582 160.663 131.702 160.443C131.906 160.019 132.151 159.629 132.45 159.25C132.88 158.766 133.374 158.351 133.908 157.982C135.666 156.848 137.688 156.189 139.5 155.151C140.079 154.826 140.354 154.127 140.039 153.513C139.895 153.224 139.64 153.009 139.331 152.904C139.211 152.869 139.101 152.844 138.991 152.844C138.796 152.844 138.612 152.904 138.407 152.979Z" fill="#333333"/>
<path d="M108.538 97.6239C108.533 97.6189 108.523 97.6089 108.518 97.5939L108.503 97.5739C108.508 97.5889 108.523 97.6089 108.538 97.6239ZM88.6116 91.4278C88.6215 91.4578 88.6365 91.4877 88.6415 91.5177C88.6265 91.4877 88.6215 91.4578 88.6116 91.4278ZM93.4196 80.7133L93.5594 80.7882C93.5145 80.7632 93.4645 80.7433 93.4196 80.7133ZM87.623 78.2918C86.6194 78.8959 85.7757 79.7647 85.2564 80.8182C84.7172 81.9216 84.4526 83.0999 84.3976 84.3281C84.3327 85.6112 84.4875 86.9093 84.7322 88.1775C84.9768 89.4806 85.3563 90.7538 85.7757 92.017C86.6194 94.5283 87.6879 96.9498 88.8562 99.3314C91.8668 105.383 95.4966 111.104 99.4659 116.561C104.099 122.932 109.227 128.929 114.354 134.91C120.411 141.98 126.492 149.05 131.884 156.664C132.094 156.958 132.558 157.128 132.898 157.153C133.307 157.173 133.706 157.033 134.001 156.758C134.291 156.499 134.47 156.129 134.49 155.735C134.52 155.3 134.35 154.986 134.106 154.641C124.974 141.745 113.82 130.486 104.199 117.989C102.467 115.738 100.789 113.446 99.1813 111.104C99.2512 111.219 99.3311 111.329 99.396 111.439C96.8297 107.674 94.4731 103.775 92.3462 99.7458C90.9532 97.0896 89.665 94.3736 88.6515 91.5476C87.9924 89.6354 87.4482 87.6583 87.2785 85.6412C87.2335 84.8623 87.2585 84.0934 87.3833 83.3195C87.4732 82.9351 87.593 82.5606 87.7378 82.1962C87.8776 81.9266 88.0424 81.6669 88.2271 81.4223C88.4268 81.2076 88.6515 81.0079 88.8812 80.8331C89.1757 80.6484 89.4853 80.4886 89.8148 80.3588C90.1393 80.259 90.4639 80.1941 90.7984 80.1641C91.1778 80.1591 91.5523 80.1891 91.9318 80.239C92.5459 80.3788 93.13 80.5935 93.6942 80.8531C94.7327 81.3873 95.6863 82.0564 96.59 82.7953C99.0065 84.8573 101.064 87.3188 102.976 89.8451C103.715 90.8287 104.444 91.8372 105.153 92.8358C106.281 94.4185 107.399 95.9812 108.503 97.5739C108.488 97.549 108.473 97.534 108.463 97.524C108.478 97.544 108.503 97.5739 108.518 97.5939C108.543 97.6338 108.573 97.6788 108.598 97.7137C108.573 97.6838 108.558 97.6538 108.538 97.6239C118.004 111.454 126.112 126.307 131.729 142.13C131.809 142.364 131.899 142.604 131.979 142.839L131.864 142.514C132.513 144.396 133.137 146.289 133.706 148.201C133.986 149.154 134.271 150.103 134.52 151.067C134.655 151.556 134.775 152.055 134.9 152.544C135.054 153.134 135.249 153.708 135.419 154.282C135.514 154.626 135.669 154.916 135.973 155.106C136.253 155.286 136.597 155.35 136.922 155.286C137.566 155.161 138.105 154.457 137.92 153.778C137.78 153.283 137.676 152.774 137.541 152.275C137.401 151.781 137.256 151.291 137.111 150.792C136.812 149.754 136.512 148.725 136.203 147.696C135.609 145.709 134.975 143.732 134.291 141.775C132.923 137.796 131.395 133.871 129.722 130.007C126.387 122.298 122.483 114.849 118.174 107.654C114.434 101.398 110.345 95.3721 106.091 89.4657C104.568 87.3437 102.951 85.2767 101.173 83.3645C99.2811 81.3274 97.1392 79.4102 94.6029 78.2169C93.5394 77.7126 92.3611 77.3781 91.1679 77.3582C91.1229 77.3582 91.073 77.3582 91.0281 77.3582C89.8348 77.3582 88.6415 77.6727 87.623 78.2918Z" fill="#333333"/>
<path d="M129.708 92.5913C129.708 92.6063 129.708 92.6213 129.708 92.6313C129.713 92.5863 129.713 92.5364 129.723 92.4815C129.713 92.5214 129.713 92.5564 129.708 92.5913ZM136.418 69.0703C136.393 69.1003 136.373 69.1352 136.354 69.1602C136.373 69.1302 136.393 69.1003 136.418 69.0703ZM142.759 62.2751C141.656 62.2751 140.542 62.5398 139.544 62.9941C138.431 63.5034 137.487 64.2074 136.598 65.0461C135.694 65.8999 134.961 66.8985 134.277 67.937C133.568 69.0054 132.968 70.1538 132.434 71.3171C131.286 73.7935 130.432 76.3997 129.728 79.0259C129.144 81.1928 128.67 83.4096 128.295 85.6264C127.012 93.1705 127.087 100.879 127.826 108.473C128.525 115.643 129.818 122.743 131.256 129.788C132.619 136.563 134.157 143.308 135.485 150.098C135.48 150.068 135.47 150.038 135.47 150.008C135.669 151.022 135.864 152.04 136.039 153.059C136.084 153.334 136.159 153.548 136.373 153.743C136.568 153.913 136.828 154.003 137.082 153.988C137.572 153.958 138.106 153.478 138.011 152.944C136.498 144.551 134.611 136.238 132.968 127.87C132.968 127.885 132.973 127.905 132.983 127.92C130.722 116.332 128.884 104.479 129.708 92.6313C129.708 92.6462 129.708 92.6512 129.708 92.6662C129.708 92.6462 129.708 92.6213 129.708 92.5913C129.713 92.5214 129.723 92.4465 129.728 92.3617C129.723 92.4066 129.723 92.4465 129.723 92.4815C130.182 86.7997 131.301 81.1279 133.183 75.7457C134.032 73.414 135.045 71.1224 136.423 69.0553C137.067 68.1367 137.781 67.2679 138.62 66.519C139.12 66.1046 139.664 65.7351 140.248 65.4306C140.692 65.2309 141.157 65.0661 141.631 64.9563C142.15 64.8764 142.669 64.8464 143.194 64.8764C143.588 64.9213 143.972 64.9962 144.357 65.111C144.676 65.2459 144.981 65.4006 145.276 65.5854C145.56 65.7951 145.81 66.0147 146.049 66.2694C146.424 66.7187 146.743 67.218 147.008 67.7422C147.507 68.8257 147.827 69.974 148.057 71.1473C148.616 74.3627 148.556 77.6729 148.326 80.9282C148.166 83.0551 147.922 85.177 147.612 87.279C147.313 89.331 146.953 91.3781 146.624 93.4251C145.196 102.552 144.242 111.754 143.194 120.935C142.589 126.338 141.96 131.755 141.172 137.142C140.782 139.853 140.373 142.569 139.898 145.27C139.669 146.578 139.419 147.871 139.149 149.18C139.025 149.779 138.885 150.388 138.75 150.987C138.595 151.676 138.455 152.365 138.241 153.034C138.131 153.378 138.246 153.823 138.44 154.112C138.645 154.417 138.965 154.632 139.329 154.712C139.694 154.786 140.093 154.712 140.403 154.507C140.727 154.282 140.887 153.988 141.002 153.623C141.042 153.498 141.077 153.373 141.122 153.254C141.871 151.207 142.435 149.12 142.864 146.983C143.313 144.766 143.633 142.524 143.953 140.282C144.612 135.714 145.151 131.116 145.655 126.522C146.664 117.341 147.512 108.144 148.746 98.9721C149.16 95.8816 149.649 92.801 150.134 89.7155C150.423 87.7983 150.683 85.871 150.883 83.9388C151.357 79.2556 151.586 74.4126 150.548 69.7793C150.343 68.8207 150.039 67.877 149.634 66.9883C149.425 66.519 149.19 66.0697 148.92 65.6303C148.641 65.1859 148.311 64.7965 147.957 64.4021C147.383 63.743 146.609 63.1988 145.805 62.8443C144.856 62.4299 143.848 62.2751 142.809 62.2751H142.759Z" fill="#333333"/>
<path d="M149.515 145.2C149.445 145.25 149.38 145.31 149.315 145.36C149.39 145.3 149.445 145.25 149.515 145.2ZM191.15 91.4679C191.15 91.5178 191.14 91.5728 191.14 91.6227C191.14 91.5728 191.14 91.5178 191.15 91.4679ZM191.165 91.3131C191.155 91.3631 191.155 91.408 191.15 91.4529C191.15 91.408 191.155 91.3631 191.165 91.3131ZM186.976 84.513C187.321 84.5579 187.66 84.6278 188 84.7277C188.269 84.8325 188.519 84.9673 188.768 85.1171C189.038 85.3168 189.283 85.5365 189.517 85.7811C189.847 86.1806 190.111 86.6149 190.356 87.0643C190.646 87.6884 190.865 88.3324 191.015 88.9965C191.165 89.8153 191.195 90.6391 191.15 91.4579C191.015 92.9058 190.676 94.3138 190.206 95.6818C188.943 99.2167 186.991 102.487 184.899 105.592L185.059 105.348C181.314 110.825 176.955 115.848 172.512 120.751C170.784 122.668 169.037 124.565 167.329 126.507C164.194 130.077 161.053 133.642 157.793 137.107C155.077 139.983 152.271 142.784 149.29 145.39C147.713 146.738 146.085 148.036 144.343 149.17C143.679 149.609 143.005 150.038 142.316 150.443C142.321 150.328 142.336 150.198 142.346 150.073C142.84 143.932 144.258 137.926 146.3 132.124C146.265 132.229 146.235 132.334 146.195 132.444C148.986 124.6 152.89 117.186 157.564 110.306C157.509 110.396 157.439 110.485 157.374 110.575C162.212 103.486 167.869 96.92 174.334 91.2832L174.319 91.2882C176.756 89.1862 179.347 87.1891 182.228 85.7362C182.228 85.7362 182.223 85.7362 182.223 85.7462C183.231 85.2619 184.275 84.8575 185.368 84.6178C185.898 84.5379 186.437 84.493 186.976 84.513ZM181.314 83.4845C178.573 84.7976 176.107 86.6 173.77 88.5222C171.838 90.1249 170.011 91.8374 168.218 93.5948C161.817 99.8658 156.305 107.06 151.712 114.744C147.004 122.648 143.294 131.22 141.187 140.187C140.278 144.092 139.714 148.071 139.545 152.075C139.345 152.23 139.15 152.385 138.945 152.545C138.536 152.854 138.241 153.234 138.132 153.748C138.017 154.262 138.122 154.801 138.411 155.241C138.965 156.08 140.264 156.419 141.107 155.775C141.537 155.445 141.976 155.136 142.405 154.801C142.84 154.457 143.254 154.077 143.679 153.708C144.627 152.889 145.566 152.06 146.485 151.207C148.217 149.599 149.979 148.021 151.707 146.404C155.232 143.098 158.582 139.608 161.837 136.053C164.758 132.868 167.574 129.588 170.46 126.367C172.162 124.46 173.905 122.593 175.617 120.691C180.136 115.658 184.52 110.46 188.164 104.754C189.872 102.088 191.395 99.2766 192.428 96.276C193.267 93.8744 193.791 91.2133 193.317 88.672C192.838 86.1306 191.415 83.4345 188.843 82.5059C188.074 82.2263 187.281 82.1064 186.492 82.1064C184.704 82.1064 182.917 82.7156 181.314 83.4845Z" fill="#333333"/>
<path d="M71.4977 110.705C70.9435 110.72 70.3844 110.825 69.8451 110.95C69.3209 111.07 68.7917 111.239 68.2974 111.464C67.5185 111.824 66.7945 112.383 66.3202 113.092C65.8659 113.751 65.6212 114.54 65.5963 115.338C65.5264 117.126 66.2853 118.858 67.1291 120.386C68.2075 122.343 69.5556 124.126 70.9885 125.833C72.4464 127.596 74.0291 129.258 75.6667 130.856C76.9049 132.074 78.1781 133.258 79.5211 134.356C80.2651 134.965 81.0689 135.519 81.8578 136.069C83.4505 137.172 85.0681 138.23 86.7058 139.264C90.0809 141.366 93.5559 143.313 97.0957 145.13C104.3 148.845 111.819 151.971 119.518 154.522C123.792 155.935 128.131 157.143 132.515 158.162C132.864 158.236 133.189 157.902 133.219 157.587C133.263 157.213 132.999 156.968 132.649 156.878C132.21 156.774 131.766 156.669 131.331 156.569C131.381 156.584 131.441 156.589 131.491 156.604C118.425 153.344 105.808 148.291 94.0601 141.715C94.12 141.75 94.185 141.78 94.2449 141.82C90.0809 139.484 86.0467 136.932 82.1623 134.146C80.5097 132.953 79.0069 131.59 77.554 130.162L77.7287 130.332C76.2209 128.849 74.773 127.316 73.395 125.709C71.9721 124.031 70.624 122.283 69.4906 120.406C69.5356 120.476 69.5805 120.546 69.6255 120.631C69.0014 119.577 68.4222 118.479 68.0677 117.301C67.9429 116.841 67.853 116.382 67.833 115.908C67.833 115.643 67.863 115.373 67.9129 115.114C67.9579 114.974 68.0078 114.844 68.0777 114.709C68.1576 114.585 68.2375 114.47 68.3323 114.36C68.4771 114.24 68.6069 114.135 68.7567 114.035C69.0663 113.871 69.4008 113.731 69.7353 113.626C70.3544 113.456 70.9935 113.366 71.6325 113.336C72.4464 113.336 73.2302 113.446 74.0241 113.626C75.7616 114.1 77.4092 114.864 78.9869 115.748L78.6524 115.558C81.5432 117.201 84.2094 119.193 86.8655 121.18C89.971 123.477 93.1614 125.649 96.2869 127.915C99.8817 130.522 103.427 133.193 106.917 135.944C108.649 137.312 110.362 138.685 112.059 140.098C113.667 141.441 115.23 142.829 116.782 144.227C119.244 146.419 121.68 148.63 124.192 150.747C125.41 151.781 126.663 152.764 127.936 153.713C128.61 154.202 129.299 154.672 130.003 155.131C130.672 155.565 131.346 155.99 132.055 156.364C132.495 156.604 133.109 156.364 133.398 155.99C133.768 155.5 133.678 154.737 133.174 154.372C132.395 153.833 131.666 153.239 130.932 152.645C130.088 151.966 129.249 151.277 128.425 150.573C126.818 149.21 125.24 147.817 123.687 146.394C120.577 143.558 117.521 140.657 114.311 137.936C110.956 135.075 107.451 132.384 103.926 129.733C100.371 127.062 96.7562 124.485 93.1115 121.949C91.7085 120.97 90.3056 120.032 88.9276 119.038C87.6294 118.095 86.3463 117.156 85.0382 116.252C83.5703 115.249 82.0824 114.3 80.5497 113.441C79.1167 112.642 77.6538 111.928 76.0961 111.409C75.3622 111.175 74.6033 110.98 73.8394 110.845C73.2452 110.735 72.6611 110.7 72.0619 110.7C71.8772 110.7 71.6875 110.7 71.4977 110.705Z" fill="#333333"/>
<path d="M84.8878 152.625C89.7408 153.054 94.5838 153.648 99.4268 154.262C104.26 154.871 109.088 155.52 113.931 156.035C118.205 156.494 122.464 157.108 126.752 157.533C126.068 157.672 125.394 157.817 124.73 157.997C122.159 158.641 119.658 159.525 117.181 160.473C112.598 162.236 108.109 164.238 103.376 165.606C103.471 165.581 103.571 165.556 103.666 165.526C100.101 166.549 96.4811 167.333 92.8363 167.967C88.3978 168.726 83.9043 169.231 79.4058 169.345C79.4307 169.345 79.4507 169.345 79.4757 169.335C75.5613 169.41 71.602 169.201 67.7776 168.297C65.9103 167.833 64.0979 167.179 62.4003 166.26C61.4367 165.696 60.533 165.047 59.7142 164.268C59.0751 163.624 58.511 162.92 58.0316 162.146C57.7271 161.612 57.4775 161.057 57.2827 160.478C57.1929 160.134 57.1329 159.769 57.103 159.415C57.103 159.125 57.1329 158.836 57.1879 158.546C57.2678 158.276 57.3776 158.012 57.4974 157.767C57.6971 157.443 57.9268 157.143 58.1864 156.864C58.6907 156.379 59.2549 155.975 59.854 155.605C61.1471 154.876 62.5551 154.342 63.9781 153.913C66.1549 153.299 68.3917 152.899 70.6384 152.61C72.5557 152.365 74.4879 152.215 76.4301 152.155C79.251 152.095 82.0719 152.37 84.8878 152.625ZM71.9415 149.319C69.5999 149.554 67.2683 149.934 64.9866 150.503C62.7848 151.047 60.563 151.736 58.5958 152.889C56.8683 153.898 55.2457 155.256 54.5667 157.203C54.2222 158.167 54.1523 159.2 54.312 160.204C54.4968 161.392 55.016 162.48 55.6301 163.494C56.8534 165.521 58.6458 167.144 60.6828 168.322C62.9995 169.67 65.5258 170.469 68.1321 171.028C70.918 171.602 73.7639 171.817 76.5998 171.872C82.5462 171.967 88.5176 171.258 94.3541 170.159C99.6864 169.166 104.939 167.788 110.007 165.831C114.635 164.043 119.143 161.931 123.916 160.518C126.907 159.664 129.968 159.1 133.078 159.02C133.353 159.01 133.642 158.796 133.797 158.591C133.967 158.361 134.042 158.057 133.997 157.767C133.972 157.582 133.902 157.413 133.787 157.273C133.942 157.048 134.047 156.789 134.077 156.494C134.182 155.62 133.513 154.742 132.619 154.672C131.446 154.582 130.287 154.432 129.124 154.292C127.861 154.142 126.603 154.003 125.344 153.853C122.923 153.563 120.506 153.269 118.085 152.994C115.673 152.719 113.252 152.485 110.825 152.23C108.399 151.971 105.982 151.681 103.561 151.401C98.7178 150.822 93.8748 150.238 89.0219 149.764C86.6004 149.524 84.1689 149.319 81.7424 149.155C80.5092 149.075 79.2809 148.995 78.0427 148.995H77.9179C75.9258 148.995 73.9287 149.11 71.9415 149.319Z" fill="#333333"/>
<path d="M81.2852 204.769L81.1055 204.849C81.1654 204.819 81.2253 204.799 81.2852 204.769ZM131.627 156.294C130.993 156.878 130.389 157.502 129.83 158.152C129.256 158.806 128.757 159.515 128.242 160.219C127.274 161.582 126.36 163.004 125.391 164.378C124.183 166.045 122.835 167.593 121.497 169.161C120.074 170.818 118.636 172.456 117.178 174.088C114.243 177.364 111.202 180.549 108.081 183.645C104.232 187.479 100.253 191.214 96.0988 194.714C95.8592 194.913 95.6245 195.103 95.3799 195.303L95.4098 195.273C93.208 197.085 90.9562 198.823 88.6096 200.45C86.2181 202.093 83.7267 203.621 81.0905 204.859C79.4479 205.608 77.7354 206.227 75.9629 206.572C75.0492 206.716 74.1206 206.791 73.1869 206.716C72.6078 206.641 72.0536 206.527 71.5144 206.342C71.07 206.157 70.6556 205.927 70.2562 205.658C69.8568 205.348 69.4923 204.999 69.1528 204.604C68.9231 204.31 68.7234 204 68.5486 203.666C68.4338 203.366 68.334 203.072 68.279 202.762C68.2241 202.383 68.2091 201.988 68.2341 201.614C68.309 201.005 68.4538 200.41 68.6535 199.831C69.1528 198.588 69.8568 197.44 70.6306 196.351C70.5807 196.431 70.5308 196.506 70.4759 196.581C71.5643 195.068 72.8225 193.675 74.1356 192.362C75.7233 190.769 77.4008 189.287 79.1283 187.864C79.0634 187.913 78.9935 187.973 78.9286 188.033C82.5135 185.083 86.293 182.372 90.1424 179.785C94.1616 177.079 98.2956 174.523 102.475 172.061C109.355 168.022 116.38 164.173 123.554 160.678C124.303 160.308 125.042 159.959 125.801 159.614C126.57 159.25 127.339 158.895 128.133 158.596C128.597 158.421 128.881 157.952 128.727 157.463C128.582 157.018 128.053 156.699 127.598 156.878C126.645 157.243 125.711 157.687 124.782 158.107C124.827 158.087 124.882 158.072 124.927 158.047C122.111 159.355 119.34 160.738 116.584 162.161C112.82 164.113 109.09 166.14 105.4 168.222C101.216 170.589 97.0824 173.05 93.0233 175.611C89.0141 178.148 85.0698 180.789 81.2752 183.635C77.96 186.116 74.7347 188.747 71.8489 191.708C70.6456 192.931 69.5272 194.239 68.5387 195.632C67.7049 196.796 67.0009 198.019 66.5166 199.357C66.1122 200.44 65.8775 201.629 66.0023 202.777C66.1271 204.005 66.6015 205.149 67.3803 206.097C68.0544 206.926 68.8482 207.62 69.7869 208.139C70.6306 208.609 71.5892 208.898 72.5429 209.038C74.7597 209.348 77.0014 208.928 79.1034 208.239C81.4899 207.46 83.7567 206.302 85.9285 205.044C88.1853 203.741 90.3471 202.248 92.4441 200.695C95.7992 198.209 98.9797 195.498 102.06 192.697C106.993 188.218 111.696 183.505 116.17 178.562C118.576 175.901 120.918 173.17 123.155 170.349C124.198 169.031 125.227 167.693 126.215 166.325C127.154 165.017 128.038 163.669 128.971 162.355C130.185 160.663 131.473 159.005 133.015 157.587C133.4 157.243 133.325 156.584 132.971 156.249C132.786 156.08 132.561 155.995 132.341 155.995C132.087 155.995 131.827 156.099 131.627 156.294Z" fill="#333333"/>
</svg>
